%TF.GenerationSoftware,KiCad,Pcbnew,7.0.9*%
%TF.CreationDate,2024-09-19T22:48:55+02:00*%
%TF.ProjectId,hpdl_1414_pmod,6870646c-5f31-4343-9134-5f706d6f642e,rev?*%
%TF.SameCoordinates,Original*%
%TF.FileFunction,Drillmap*%
%TF.FilePolarity,Positive*%
%FSLAX45Y45*%
G04 Gerber Fmt 4.5, Leading zero omitted, Abs format (unit mm)*
G04 Created by KiCad (PCBNEW 7.0.9) date 2024-09-19 22:48:55*
%MOMM*%
%LPD*%
G01*
G04 APERTURE LIST*
%ADD10C,0.100000*%
%ADD11C,0.200000*%
G04 APERTURE END LIST*
D10*
X18400000Y-4700000D02*
G75*
G03*
X18100000Y-4400000I-300000J0D01*
G01*
X18400000Y-9700000D02*
X18400000Y-4700000D01*
X10000000Y-4700000D02*
X10000000Y-8100000D01*
X10000000Y-9700000D02*
G75*
G03*
X10300000Y-10000000I300000J0D01*
G01*
X10300000Y-10000000D02*
X18100000Y-10000000D01*
X18100000Y-10000000D02*
G75*
G03*
X18400000Y-9700000I0J300000D01*
G01*
X10300000Y-4400000D02*
G75*
G03*
X10000000Y-4700000I0J-300000D01*
G01*
X10000000Y-8100000D02*
X10000000Y-9700000D01*
X18100000Y-4400000D02*
X10300000Y-4400000D01*
D11*
D10*
X11285000Y-7491500D02*
X11345000Y-7551500D01*
X11345000Y-7491500D02*
X11285000Y-7551500D01*
X11290000Y-6920000D02*
X11350000Y-6980000D01*
X11350000Y-6920000D02*
X11290000Y-6980000D01*
X11535000Y-7581500D02*
X11595000Y-7641500D01*
X11595000Y-7581500D02*
X11535000Y-7641500D01*
X11545000Y-6837450D02*
X11605000Y-6897450D01*
X11605000Y-6837450D02*
X11545000Y-6897450D01*
X11730000Y-8330000D02*
X11790000Y-8390000D01*
X11790000Y-8330000D02*
X11730000Y-8390000D01*
X11810000Y-6720000D02*
X11870000Y-6780000D01*
X11870000Y-6720000D02*
X11810000Y-6780000D01*
X12050000Y-6680000D02*
X12110000Y-6740000D01*
X12110000Y-6680000D02*
X12050000Y-6740000D01*
X12053000Y-7673775D02*
X12113000Y-7733775D01*
X12113000Y-7673775D02*
X12053000Y-7733775D01*
X12300000Y-6600000D02*
X12360000Y-6660000D01*
X12360000Y-6600000D02*
X12300000Y-6660000D01*
X12300000Y-7770000D02*
X12360000Y-7830000D01*
X12360000Y-7770000D02*
X12300000Y-7830000D01*
X13085000Y-7491500D02*
X13145000Y-7551500D01*
X13145000Y-7491500D02*
X13085000Y-7551500D01*
X13090000Y-6920000D02*
X13150000Y-6980000D01*
X13150000Y-6920000D02*
X13090000Y-6980000D01*
X13335000Y-7591500D02*
X13395000Y-7651500D01*
X13395000Y-7591500D02*
X13335000Y-7651500D01*
X13345000Y-6837450D02*
X13405000Y-6897450D01*
X13405000Y-6837450D02*
X13345000Y-6897450D01*
X13610000Y-6760000D02*
X13670000Y-6820000D01*
X13670000Y-6760000D02*
X13610000Y-6820000D01*
X13850000Y-6677450D02*
X13910000Y-6737450D01*
X13910000Y-6677450D02*
X13850000Y-6737450D01*
X13853000Y-7673775D02*
X13913000Y-7733775D01*
X13913000Y-7673775D02*
X13853000Y-7733775D01*
X14100000Y-6600000D02*
X14160000Y-6660000D01*
X14160000Y-6600000D02*
X14100000Y-6660000D01*
X14110000Y-7760000D02*
X14170000Y-7820000D01*
X14170000Y-7760000D02*
X14110000Y-7820000D01*
X14885000Y-6925000D02*
X14945000Y-6985000D01*
X14945000Y-6925000D02*
X14885000Y-6985000D01*
X14890000Y-7500000D02*
X14950000Y-7560000D01*
X14950000Y-7500000D02*
X14890000Y-7560000D01*
X15139000Y-6841000D02*
X15199000Y-6901000D01*
X15199000Y-6841000D02*
X15139000Y-6901000D01*
X15140000Y-7590000D02*
X15200000Y-7650000D01*
X15200000Y-7590000D02*
X15140000Y-7650000D01*
X15390000Y-6760000D02*
X15450000Y-6820000D01*
X15450000Y-6760000D02*
X15390000Y-6820000D01*
X15650000Y-6680000D02*
X15710000Y-6740000D01*
X15710000Y-6680000D02*
X15650000Y-6740000D01*
X15650000Y-7682550D02*
X15710000Y-7742550D01*
X15710000Y-7682550D02*
X15650000Y-7742550D01*
X15900000Y-6600000D02*
X15960000Y-6660000D01*
X15960000Y-6600000D02*
X15900000Y-6660000D01*
X15900000Y-7760000D02*
X15960000Y-7820000D01*
X15960000Y-7760000D02*
X15900000Y-7820000D01*
X16685000Y-6917450D02*
X16745000Y-6977450D01*
X16745000Y-6917450D02*
X16685000Y-6977450D01*
X16690000Y-7500000D02*
X16750000Y-7560000D01*
X16750000Y-7500000D02*
X16690000Y-7560000D01*
X16939000Y-6840000D02*
X16999000Y-6900000D01*
X16999000Y-6840000D02*
X16939000Y-6900000D01*
X16940000Y-7600000D02*
X17000000Y-7660000D01*
X17000000Y-7600000D02*
X16940000Y-7660000D01*
X17190000Y-6757450D02*
X17250000Y-6817450D01*
X17250000Y-6757450D02*
X17190000Y-6817450D01*
X17450000Y-6680000D02*
X17510000Y-6740000D01*
X17510000Y-6680000D02*
X17450000Y-6740000D01*
X17450000Y-7682550D02*
X17510000Y-7742550D01*
X17510000Y-7682550D02*
X17450000Y-7742550D01*
X17700000Y-6600000D02*
X17760000Y-6660000D01*
X17760000Y-6600000D02*
X17700000Y-6660000D01*
X17700000Y-7760000D02*
X17760000Y-7820000D01*
X17760000Y-7760000D02*
X17700000Y-7820000D01*
X11353100Y-6438000D02*
G75*
G03*
X11353100Y-6438000I-38100J0D01*
G01*
X11353100Y-7962000D02*
G75*
G03*
X11353100Y-7962000I-38100J0D01*
G01*
X11607100Y-6438000D02*
G75*
G03*
X11607100Y-6438000I-38100J0D01*
G01*
X11607100Y-7962000D02*
G75*
G03*
X11607100Y-7962000I-38100J0D01*
G01*
X11861100Y-6438000D02*
G75*
G03*
X11861100Y-6438000I-38100J0D01*
G01*
X11861100Y-7962000D02*
G75*
G03*
X11861100Y-7962000I-38100J0D01*
G01*
X12115100Y-6438000D02*
G75*
G03*
X12115100Y-6438000I-38100J0D01*
G01*
X12115100Y-7962000D02*
G75*
G03*
X12115100Y-7962000I-38100J0D01*
G01*
X12369100Y-6438000D02*
G75*
G03*
X12369100Y-6438000I-38100J0D01*
G01*
X12369100Y-7962000D02*
G75*
G03*
X12369100Y-7962000I-38100J0D01*
G01*
X12623100Y-6438000D02*
G75*
G03*
X12623100Y-6438000I-38100J0D01*
G01*
X12623100Y-7962000D02*
G75*
G03*
X12623100Y-7962000I-38100J0D01*
G01*
X13153100Y-6438000D02*
G75*
G03*
X13153100Y-6438000I-38100J0D01*
G01*
X13153100Y-7962000D02*
G75*
G03*
X13153100Y-7962000I-38100J0D01*
G01*
X13407100Y-6438000D02*
G75*
G03*
X13407100Y-6438000I-38100J0D01*
G01*
X13407100Y-7962000D02*
G75*
G03*
X13407100Y-7962000I-38100J0D01*
G01*
X13661100Y-6438000D02*
G75*
G03*
X13661100Y-6438000I-38100J0D01*
G01*
X13661100Y-7962000D02*
G75*
G03*
X13661100Y-7962000I-38100J0D01*
G01*
X13915100Y-6438000D02*
G75*
G03*
X13915100Y-6438000I-38100J0D01*
G01*
X13915100Y-7962000D02*
G75*
G03*
X13915100Y-7962000I-38100J0D01*
G01*
X14169100Y-6438000D02*
G75*
G03*
X14169100Y-6438000I-38100J0D01*
G01*
X14169100Y-7962000D02*
G75*
G03*
X14169100Y-7962000I-38100J0D01*
G01*
X14423100Y-6438000D02*
G75*
G03*
X14423100Y-6438000I-38100J0D01*
G01*
X14423100Y-7962000D02*
G75*
G03*
X14423100Y-7962000I-38100J0D01*
G01*
X14953100Y-6438000D02*
G75*
G03*
X14953100Y-6438000I-38100J0D01*
G01*
X14953100Y-7962000D02*
G75*
G03*
X14953100Y-7962000I-38100J0D01*
G01*
X15207100Y-6438000D02*
G75*
G03*
X15207100Y-6438000I-38100J0D01*
G01*
X15207100Y-7962000D02*
G75*
G03*
X15207100Y-7962000I-38100J0D01*
G01*
X15461100Y-6438000D02*
G75*
G03*
X15461100Y-6438000I-38100J0D01*
G01*
X15461100Y-7962000D02*
G75*
G03*
X15461100Y-7962000I-38100J0D01*
G01*
X15715100Y-6438000D02*
G75*
G03*
X15715100Y-6438000I-38100J0D01*
G01*
X15715100Y-7962000D02*
G75*
G03*
X15715100Y-7962000I-38100J0D01*
G01*
X15969100Y-6438000D02*
G75*
G03*
X15969100Y-6438000I-38100J0D01*
G01*
X15969100Y-7962000D02*
G75*
G03*
X15969100Y-7962000I-38100J0D01*
G01*
X16223100Y-6438000D02*
G75*
G03*
X16223100Y-6438000I-38100J0D01*
G01*
X16223100Y-7962000D02*
G75*
G03*
X16223100Y-7962000I-38100J0D01*
G01*
X16753100Y-6438000D02*
G75*
G03*
X16753100Y-6438000I-38100J0D01*
G01*
X16753100Y-7962000D02*
G75*
G03*
X16753100Y-7962000I-38100J0D01*
G01*
X17007100Y-6438000D02*
G75*
G03*
X17007100Y-6438000I-38100J0D01*
G01*
X17007100Y-7962000D02*
G75*
G03*
X17007100Y-7962000I-38100J0D01*
G01*
X17261100Y-6438000D02*
G75*
G03*
X17261100Y-6438000I-38100J0D01*
G01*
X17261100Y-7962000D02*
G75*
G03*
X17261100Y-7962000I-38100J0D01*
G01*
X17515100Y-6438000D02*
G75*
G03*
X17515100Y-6438000I-38100J0D01*
G01*
X17515100Y-7962000D02*
G75*
G03*
X17515100Y-7962000I-38100J0D01*
G01*
X17769100Y-6438000D02*
G75*
G03*
X17769100Y-6438000I-38100J0D01*
G01*
X17769100Y-7962000D02*
G75*
G03*
X17769100Y-7962000I-38100J0D01*
G01*
X18023100Y-6438000D02*
G75*
G03*
X18023100Y-6438000I-38100J0D01*
G01*
X18023100Y-7962000D02*
G75*
G03*
X18023100Y-7962000I-38100J0D01*
G01*
X12850000Y-8510000D02*
X12850000Y-8590000D01*
X12810000Y-8550000D02*
X12890000Y-8550000D01*
X12850000Y-9010000D02*
X12850000Y-9090000D01*
X12810000Y-9050000D02*
X12890000Y-9050000D01*
X14650000Y-8510000D02*
X14650000Y-8590000D01*
X14610000Y-8550000D02*
X14690000Y-8550000D01*
X14650000Y-9010000D02*
X14650000Y-9090000D01*
X14610000Y-9050000D02*
X14690000Y-9050000D01*
X16450000Y-8510000D02*
X16450000Y-8590000D01*
X16410000Y-8550000D02*
X16490000Y-8550000D01*
X16450000Y-9010000D02*
X16450000Y-9090000D01*
X16410000Y-9050000D02*
X16490000Y-9050000D01*
X10461356Y-5457356D02*
X10461356Y-5386644D01*
X10390644Y-5386644D01*
X10390644Y-5457356D01*
X10461356Y-5457356D01*
X10461356Y-5711356D02*
X10461356Y-5640644D01*
X10390644Y-5640644D01*
X10390644Y-5711356D01*
X10461356Y-5711356D01*
X10461356Y-5965356D02*
X10461356Y-5894644D01*
X10390644Y-5894644D01*
X10390644Y-5965356D01*
X10461356Y-5965356D01*
X10461356Y-6219356D02*
X10461356Y-6148644D01*
X10390644Y-6148644D01*
X10390644Y-6219356D01*
X10461356Y-6219356D01*
X10461356Y-6473356D02*
X10461356Y-6402644D01*
X10390644Y-6402644D01*
X10390644Y-6473356D01*
X10461356Y-6473356D01*
X10461356Y-6727356D02*
X10461356Y-6656644D01*
X10390644Y-6656644D01*
X10390644Y-6727356D01*
X10461356Y-6727356D01*
X10461356Y-7743356D02*
X10461356Y-7672644D01*
X10390644Y-7672644D01*
X10390644Y-7743356D01*
X10461356Y-7743356D01*
X10461356Y-7997356D02*
X10461356Y-7926644D01*
X10390644Y-7926644D01*
X10390644Y-7997356D01*
X10461356Y-7997356D01*
X10461356Y-8251356D02*
X10461356Y-8180644D01*
X10390644Y-8180644D01*
X10390644Y-8251356D01*
X10461356Y-8251356D01*
X10461356Y-8505356D02*
X10461356Y-8434644D01*
X10390644Y-8434644D01*
X10390644Y-8505356D01*
X10461356Y-8505356D01*
X10461356Y-8759356D02*
X10461356Y-8688644D01*
X10390644Y-8688644D01*
X10390644Y-8759356D01*
X10461356Y-8759356D01*
X10461356Y-9013356D02*
X10461356Y-8942644D01*
X10390644Y-8942644D01*
X10390644Y-9013356D01*
X10461356Y-9013356D01*
X10715356Y-5457356D02*
X10715356Y-5386644D01*
X10644644Y-5386644D01*
X10644644Y-5457356D01*
X10715356Y-5457356D01*
X10715356Y-5711356D02*
X10715356Y-5640644D01*
X10644644Y-5640644D01*
X10644644Y-5711356D01*
X10715356Y-5711356D01*
X10715356Y-5965356D02*
X10715356Y-5894644D01*
X10644644Y-5894644D01*
X10644644Y-5965356D01*
X10715356Y-5965356D01*
X10715356Y-6219356D02*
X10715356Y-6148644D01*
X10644644Y-6148644D01*
X10644644Y-6219356D01*
X10715356Y-6219356D01*
X10715356Y-6473356D02*
X10715356Y-6402644D01*
X10644644Y-6402644D01*
X10644644Y-6473356D01*
X10715356Y-6473356D01*
X10715356Y-6727356D02*
X10715356Y-6656644D01*
X10644644Y-6656644D01*
X10644644Y-6727356D01*
X10715356Y-6727356D01*
X10715356Y-7743356D02*
X10715356Y-7672644D01*
X10644644Y-7672644D01*
X10644644Y-7743356D01*
X10715356Y-7743356D01*
X10715356Y-7997356D02*
X10715356Y-7926644D01*
X10644644Y-7926644D01*
X10644644Y-7997356D01*
X10715356Y-7997356D01*
X10715356Y-8251356D02*
X10715356Y-8180644D01*
X10644644Y-8180644D01*
X10644644Y-8251356D01*
X10715356Y-8251356D01*
X10715356Y-8505356D02*
X10715356Y-8434644D01*
X10644644Y-8434644D01*
X10644644Y-8505356D01*
X10715356Y-8505356D01*
X10715356Y-8759356D02*
X10715356Y-8688644D01*
X10644644Y-8688644D01*
X10644644Y-8759356D01*
X10715356Y-8759356D01*
X10715356Y-9013356D02*
X10715356Y-8942644D01*
X10644644Y-8942644D01*
X10644644Y-9013356D01*
X10715356Y-9013356D01*
D11*
X10255777Y-10316484D02*
X10255777Y-10116484D01*
X10255777Y-10116484D02*
X10303396Y-10116484D01*
X10303396Y-10116484D02*
X10331967Y-10126008D01*
X10331967Y-10126008D02*
X10351015Y-10145055D01*
X10351015Y-10145055D02*
X10360539Y-10164103D01*
X10360539Y-10164103D02*
X10370063Y-10202198D01*
X10370063Y-10202198D02*
X10370063Y-10230770D01*
X10370063Y-10230770D02*
X10360539Y-10268865D01*
X10360539Y-10268865D02*
X10351015Y-10287912D01*
X10351015Y-10287912D02*
X10331967Y-10306960D01*
X10331967Y-10306960D02*
X10303396Y-10316484D01*
X10303396Y-10316484D02*
X10255777Y-10316484D01*
X10455777Y-10316484D02*
X10455777Y-10183150D01*
X10455777Y-10221246D02*
X10465301Y-10202198D01*
X10465301Y-10202198D02*
X10474824Y-10192674D01*
X10474824Y-10192674D02*
X10493872Y-10183150D01*
X10493872Y-10183150D02*
X10512920Y-10183150D01*
X10579586Y-10316484D02*
X10579586Y-10183150D01*
X10579586Y-10116484D02*
X10570063Y-10126008D01*
X10570063Y-10126008D02*
X10579586Y-10135531D01*
X10579586Y-10135531D02*
X10589110Y-10126008D01*
X10589110Y-10126008D02*
X10579586Y-10116484D01*
X10579586Y-10116484D02*
X10579586Y-10135531D01*
X10703396Y-10316484D02*
X10684348Y-10306960D01*
X10684348Y-10306960D02*
X10674824Y-10287912D01*
X10674824Y-10287912D02*
X10674824Y-10116484D01*
X10808158Y-10316484D02*
X10789110Y-10306960D01*
X10789110Y-10306960D02*
X10779586Y-10287912D01*
X10779586Y-10287912D02*
X10779586Y-10116484D01*
X11036729Y-10316484D02*
X11036729Y-10116484D01*
X11036729Y-10116484D02*
X11103396Y-10259341D01*
X11103396Y-10259341D02*
X11170063Y-10116484D01*
X11170063Y-10116484D02*
X11170063Y-10316484D01*
X11351015Y-10316484D02*
X11351015Y-10211722D01*
X11351015Y-10211722D02*
X11341491Y-10192674D01*
X11341491Y-10192674D02*
X11322443Y-10183150D01*
X11322443Y-10183150D02*
X11284348Y-10183150D01*
X11284348Y-10183150D02*
X11265301Y-10192674D01*
X11351015Y-10306960D02*
X11331967Y-10316484D01*
X11331967Y-10316484D02*
X11284348Y-10316484D01*
X11284348Y-10316484D02*
X11265301Y-10306960D01*
X11265301Y-10306960D02*
X11255777Y-10287912D01*
X11255777Y-10287912D02*
X11255777Y-10268865D01*
X11255777Y-10268865D02*
X11265301Y-10249817D01*
X11265301Y-10249817D02*
X11284348Y-10240293D01*
X11284348Y-10240293D02*
X11331967Y-10240293D01*
X11331967Y-10240293D02*
X11351015Y-10230770D01*
X11446253Y-10183150D02*
X11446253Y-10383150D01*
X11446253Y-10192674D02*
X11465301Y-10183150D01*
X11465301Y-10183150D02*
X11503396Y-10183150D01*
X11503396Y-10183150D02*
X11522443Y-10192674D01*
X11522443Y-10192674D02*
X11531967Y-10202198D01*
X11531967Y-10202198D02*
X11541491Y-10221246D01*
X11541491Y-10221246D02*
X11541491Y-10278389D01*
X11541491Y-10278389D02*
X11531967Y-10297436D01*
X11531967Y-10297436D02*
X11522443Y-10306960D01*
X11522443Y-10306960D02*
X11503396Y-10316484D01*
X11503396Y-10316484D02*
X11465301Y-10316484D01*
X11465301Y-10316484D02*
X11446253Y-10306960D01*
X11627205Y-10297436D02*
X11636729Y-10306960D01*
X11636729Y-10306960D02*
X11627205Y-10316484D01*
X11627205Y-10316484D02*
X11617682Y-10306960D01*
X11617682Y-10306960D02*
X11627205Y-10297436D01*
X11627205Y-10297436D02*
X11627205Y-10316484D01*
X11627205Y-10192674D02*
X11636729Y-10202198D01*
X11636729Y-10202198D02*
X11627205Y-10211722D01*
X11627205Y-10211722D02*
X11617682Y-10202198D01*
X11617682Y-10202198D02*
X11627205Y-10192674D01*
X11627205Y-10192674D02*
X11627205Y-10211722D01*
D10*
X9935000Y-10615000D02*
X9995000Y-10675000D01*
X9995000Y-10615000D02*
X9935000Y-10675000D01*
D11*
X10293872Y-10536484D02*
X10312920Y-10536484D01*
X10312920Y-10536484D02*
X10331967Y-10546008D01*
X10331967Y-10546008D02*
X10341491Y-10555531D01*
X10341491Y-10555531D02*
X10351015Y-10574579D01*
X10351015Y-10574579D02*
X10360539Y-10612674D01*
X10360539Y-10612674D02*
X10360539Y-10660293D01*
X10360539Y-10660293D02*
X10351015Y-10698389D01*
X10351015Y-10698389D02*
X10341491Y-10717436D01*
X10341491Y-10717436D02*
X10331967Y-10726960D01*
X10331967Y-10726960D02*
X10312920Y-10736484D01*
X10312920Y-10736484D02*
X10293872Y-10736484D01*
X10293872Y-10736484D02*
X10274824Y-10726960D01*
X10274824Y-10726960D02*
X10265301Y-10717436D01*
X10265301Y-10717436D02*
X10255777Y-10698389D01*
X10255777Y-10698389D02*
X10246253Y-10660293D01*
X10246253Y-10660293D02*
X10246253Y-10612674D01*
X10246253Y-10612674D02*
X10255777Y-10574579D01*
X10255777Y-10574579D02*
X10265301Y-10555531D01*
X10265301Y-10555531D02*
X10274824Y-10546008D01*
X10274824Y-10546008D02*
X10293872Y-10536484D01*
X10446253Y-10717436D02*
X10455777Y-10726960D01*
X10455777Y-10726960D02*
X10446253Y-10736484D01*
X10446253Y-10736484D02*
X10436729Y-10726960D01*
X10436729Y-10726960D02*
X10446253Y-10717436D01*
X10446253Y-10717436D02*
X10446253Y-10736484D01*
X10627205Y-10536484D02*
X10589110Y-10536484D01*
X10589110Y-10536484D02*
X10570063Y-10546008D01*
X10570063Y-10546008D02*
X10560539Y-10555531D01*
X10560539Y-10555531D02*
X10541491Y-10584103D01*
X10541491Y-10584103D02*
X10531967Y-10622198D01*
X10531967Y-10622198D02*
X10531967Y-10698389D01*
X10531967Y-10698389D02*
X10541491Y-10717436D01*
X10541491Y-10717436D02*
X10551015Y-10726960D01*
X10551015Y-10726960D02*
X10570063Y-10736484D01*
X10570063Y-10736484D02*
X10608158Y-10736484D01*
X10608158Y-10736484D02*
X10627205Y-10726960D01*
X10627205Y-10726960D02*
X10636729Y-10717436D01*
X10636729Y-10717436D02*
X10646253Y-10698389D01*
X10646253Y-10698389D02*
X10646253Y-10650770D01*
X10646253Y-10650770D02*
X10636729Y-10631722D01*
X10636729Y-10631722D02*
X10627205Y-10622198D01*
X10627205Y-10622198D02*
X10608158Y-10612674D01*
X10608158Y-10612674D02*
X10570063Y-10612674D01*
X10570063Y-10612674D02*
X10551015Y-10622198D01*
X10551015Y-10622198D02*
X10541491Y-10631722D01*
X10541491Y-10631722D02*
X10531967Y-10650770D01*
X10770063Y-10536484D02*
X10789110Y-10536484D01*
X10789110Y-10536484D02*
X10808158Y-10546008D01*
X10808158Y-10546008D02*
X10817682Y-10555531D01*
X10817682Y-10555531D02*
X10827205Y-10574579D01*
X10827205Y-10574579D02*
X10836729Y-10612674D01*
X10836729Y-10612674D02*
X10836729Y-10660293D01*
X10836729Y-10660293D02*
X10827205Y-10698389D01*
X10827205Y-10698389D02*
X10817682Y-10717436D01*
X10817682Y-10717436D02*
X10808158Y-10726960D01*
X10808158Y-10726960D02*
X10789110Y-10736484D01*
X10789110Y-10736484D02*
X10770063Y-10736484D01*
X10770063Y-10736484D02*
X10751015Y-10726960D01*
X10751015Y-10726960D02*
X10741491Y-10717436D01*
X10741491Y-10717436D02*
X10731967Y-10698389D01*
X10731967Y-10698389D02*
X10722444Y-10660293D01*
X10722444Y-10660293D02*
X10722444Y-10612674D01*
X10722444Y-10612674D02*
X10731967Y-10574579D01*
X10731967Y-10574579D02*
X10741491Y-10555531D01*
X10741491Y-10555531D02*
X10751015Y-10546008D01*
X10751015Y-10546008D02*
X10770063Y-10536484D01*
X10960539Y-10536484D02*
X10979586Y-10536484D01*
X10979586Y-10536484D02*
X10998634Y-10546008D01*
X10998634Y-10546008D02*
X11008158Y-10555531D01*
X11008158Y-10555531D02*
X11017682Y-10574579D01*
X11017682Y-10574579D02*
X11027205Y-10612674D01*
X11027205Y-10612674D02*
X11027205Y-10660293D01*
X11027205Y-10660293D02*
X11017682Y-10698389D01*
X11017682Y-10698389D02*
X11008158Y-10717436D01*
X11008158Y-10717436D02*
X10998634Y-10726960D01*
X10998634Y-10726960D02*
X10979586Y-10736484D01*
X10979586Y-10736484D02*
X10960539Y-10736484D01*
X10960539Y-10736484D02*
X10941491Y-10726960D01*
X10941491Y-10726960D02*
X10931967Y-10717436D01*
X10931967Y-10717436D02*
X10922444Y-10698389D01*
X10922444Y-10698389D02*
X10912920Y-10660293D01*
X10912920Y-10660293D02*
X10912920Y-10612674D01*
X10912920Y-10612674D02*
X10922444Y-10574579D01*
X10922444Y-10574579D02*
X10931967Y-10555531D01*
X10931967Y-10555531D02*
X10941491Y-10546008D01*
X10941491Y-10546008D02*
X10960539Y-10536484D01*
X11112920Y-10736484D02*
X11112920Y-10603150D01*
X11112920Y-10622198D02*
X11122444Y-10612674D01*
X11122444Y-10612674D02*
X11141491Y-10603150D01*
X11141491Y-10603150D02*
X11170063Y-10603150D01*
X11170063Y-10603150D02*
X11189110Y-10612674D01*
X11189110Y-10612674D02*
X11198634Y-10631722D01*
X11198634Y-10631722D02*
X11198634Y-10736484D01*
X11198634Y-10631722D02*
X11208158Y-10612674D01*
X11208158Y-10612674D02*
X11227205Y-10603150D01*
X11227205Y-10603150D02*
X11255777Y-10603150D01*
X11255777Y-10603150D02*
X11274824Y-10612674D01*
X11274824Y-10612674D02*
X11284348Y-10631722D01*
X11284348Y-10631722D02*
X11284348Y-10736484D01*
X11379586Y-10736484D02*
X11379586Y-10603150D01*
X11379586Y-10622198D02*
X11389110Y-10612674D01*
X11389110Y-10612674D02*
X11408158Y-10603150D01*
X11408158Y-10603150D02*
X11436729Y-10603150D01*
X11436729Y-10603150D02*
X11455777Y-10612674D01*
X11455777Y-10612674D02*
X11465301Y-10631722D01*
X11465301Y-10631722D02*
X11465301Y-10736484D01*
X11465301Y-10631722D02*
X11474824Y-10612674D01*
X11474824Y-10612674D02*
X11493872Y-10603150D01*
X11493872Y-10603150D02*
X11522443Y-10603150D01*
X11522443Y-10603150D02*
X11541491Y-10612674D01*
X11541491Y-10612674D02*
X11551015Y-10631722D01*
X11551015Y-10631722D02*
X11551015Y-10736484D01*
X11941491Y-10526960D02*
X11770063Y-10784103D01*
X12198634Y-10536484D02*
X12217682Y-10536484D01*
X12217682Y-10536484D02*
X12236729Y-10546008D01*
X12236729Y-10546008D02*
X12246253Y-10555531D01*
X12246253Y-10555531D02*
X12255777Y-10574579D01*
X12255777Y-10574579D02*
X12265301Y-10612674D01*
X12265301Y-10612674D02*
X12265301Y-10660293D01*
X12265301Y-10660293D02*
X12255777Y-10698389D01*
X12255777Y-10698389D02*
X12246253Y-10717436D01*
X12246253Y-10717436D02*
X12236729Y-10726960D01*
X12236729Y-10726960D02*
X12217682Y-10736484D01*
X12217682Y-10736484D02*
X12198634Y-10736484D01*
X12198634Y-10736484D02*
X12179586Y-10726960D01*
X12179586Y-10726960D02*
X12170063Y-10717436D01*
X12170063Y-10717436D02*
X12160539Y-10698389D01*
X12160539Y-10698389D02*
X12151015Y-10660293D01*
X12151015Y-10660293D02*
X12151015Y-10612674D01*
X12151015Y-10612674D02*
X12160539Y-10574579D01*
X12160539Y-10574579D02*
X12170063Y-10555531D01*
X12170063Y-10555531D02*
X12179586Y-10546008D01*
X12179586Y-10546008D02*
X12198634Y-10536484D01*
X12351015Y-10717436D02*
X12360539Y-10726960D01*
X12360539Y-10726960D02*
X12351015Y-10736484D01*
X12351015Y-10736484D02*
X12341491Y-10726960D01*
X12341491Y-10726960D02*
X12351015Y-10717436D01*
X12351015Y-10717436D02*
X12351015Y-10736484D01*
X12484348Y-10536484D02*
X12503396Y-10536484D01*
X12503396Y-10536484D02*
X12522444Y-10546008D01*
X12522444Y-10546008D02*
X12531967Y-10555531D01*
X12531967Y-10555531D02*
X12541491Y-10574579D01*
X12541491Y-10574579D02*
X12551015Y-10612674D01*
X12551015Y-10612674D02*
X12551015Y-10660293D01*
X12551015Y-10660293D02*
X12541491Y-10698389D01*
X12541491Y-10698389D02*
X12531967Y-10717436D01*
X12531967Y-10717436D02*
X12522444Y-10726960D01*
X12522444Y-10726960D02*
X12503396Y-10736484D01*
X12503396Y-10736484D02*
X12484348Y-10736484D01*
X12484348Y-10736484D02*
X12465301Y-10726960D01*
X12465301Y-10726960D02*
X12455777Y-10717436D01*
X12455777Y-10717436D02*
X12446253Y-10698389D01*
X12446253Y-10698389D02*
X12436729Y-10660293D01*
X12436729Y-10660293D02*
X12436729Y-10612674D01*
X12436729Y-10612674D02*
X12446253Y-10574579D01*
X12446253Y-10574579D02*
X12455777Y-10555531D01*
X12455777Y-10555531D02*
X12465301Y-10546008D01*
X12465301Y-10546008D02*
X12484348Y-10536484D01*
X12627206Y-10555531D02*
X12636729Y-10546008D01*
X12636729Y-10546008D02*
X12655777Y-10536484D01*
X12655777Y-10536484D02*
X12703396Y-10536484D01*
X12703396Y-10536484D02*
X12722444Y-10546008D01*
X12722444Y-10546008D02*
X12731967Y-10555531D01*
X12731967Y-10555531D02*
X12741491Y-10574579D01*
X12741491Y-10574579D02*
X12741491Y-10593627D01*
X12741491Y-10593627D02*
X12731967Y-10622198D01*
X12731967Y-10622198D02*
X12617682Y-10736484D01*
X12617682Y-10736484D02*
X12741491Y-10736484D01*
X12808158Y-10536484D02*
X12931967Y-10536484D01*
X12931967Y-10536484D02*
X12865301Y-10612674D01*
X12865301Y-10612674D02*
X12893872Y-10612674D01*
X12893872Y-10612674D02*
X12912920Y-10622198D01*
X12912920Y-10622198D02*
X12922444Y-10631722D01*
X12922444Y-10631722D02*
X12931967Y-10650770D01*
X12931967Y-10650770D02*
X12931967Y-10698389D01*
X12931967Y-10698389D02*
X12922444Y-10717436D01*
X12922444Y-10717436D02*
X12912920Y-10726960D01*
X12912920Y-10726960D02*
X12893872Y-10736484D01*
X12893872Y-10736484D02*
X12836729Y-10736484D01*
X12836729Y-10736484D02*
X12817682Y-10726960D01*
X12817682Y-10726960D02*
X12808158Y-10717436D01*
X13103396Y-10536484D02*
X13065301Y-10536484D01*
X13065301Y-10536484D02*
X13046253Y-10546008D01*
X13046253Y-10546008D02*
X13036729Y-10555531D01*
X13036729Y-10555531D02*
X13017682Y-10584103D01*
X13017682Y-10584103D02*
X13008158Y-10622198D01*
X13008158Y-10622198D02*
X13008158Y-10698389D01*
X13008158Y-10698389D02*
X13017682Y-10717436D01*
X13017682Y-10717436D02*
X13027206Y-10726960D01*
X13027206Y-10726960D02*
X13046253Y-10736484D01*
X13046253Y-10736484D02*
X13084348Y-10736484D01*
X13084348Y-10736484D02*
X13103396Y-10726960D01*
X13103396Y-10726960D02*
X13112920Y-10717436D01*
X13112920Y-10717436D02*
X13122444Y-10698389D01*
X13122444Y-10698389D02*
X13122444Y-10650770D01*
X13122444Y-10650770D02*
X13112920Y-10631722D01*
X13112920Y-10631722D02*
X13103396Y-10622198D01*
X13103396Y-10622198D02*
X13084348Y-10612674D01*
X13084348Y-10612674D02*
X13046253Y-10612674D01*
X13046253Y-10612674D02*
X13027206Y-10622198D01*
X13027206Y-10622198D02*
X13017682Y-10631722D01*
X13017682Y-10631722D02*
X13008158Y-10650770D01*
X13198634Y-10536484D02*
X13198634Y-10574579D01*
X13274825Y-10536484D02*
X13274825Y-10574579D01*
X13570063Y-10812674D02*
X13560539Y-10803150D01*
X13560539Y-10803150D02*
X13541491Y-10774579D01*
X13541491Y-10774579D02*
X13531968Y-10755531D01*
X13531968Y-10755531D02*
X13522444Y-10726960D01*
X13522444Y-10726960D02*
X13512920Y-10679341D01*
X13512920Y-10679341D02*
X13512920Y-10641246D01*
X13512920Y-10641246D02*
X13522444Y-10593627D01*
X13522444Y-10593627D02*
X13531968Y-10565055D01*
X13531968Y-10565055D02*
X13541491Y-10546008D01*
X13541491Y-10546008D02*
X13560539Y-10517436D01*
X13560539Y-10517436D02*
X13570063Y-10507912D01*
X13627206Y-10536484D02*
X13751015Y-10536484D01*
X13751015Y-10536484D02*
X13684348Y-10612674D01*
X13684348Y-10612674D02*
X13712920Y-10612674D01*
X13712920Y-10612674D02*
X13731968Y-10622198D01*
X13731968Y-10622198D02*
X13741491Y-10631722D01*
X13741491Y-10631722D02*
X13751015Y-10650770D01*
X13751015Y-10650770D02*
X13751015Y-10698389D01*
X13751015Y-10698389D02*
X13741491Y-10717436D01*
X13741491Y-10717436D02*
X13731968Y-10726960D01*
X13731968Y-10726960D02*
X13712920Y-10736484D01*
X13712920Y-10736484D02*
X13655777Y-10736484D01*
X13655777Y-10736484D02*
X13636729Y-10726960D01*
X13636729Y-10726960D02*
X13627206Y-10717436D01*
X13817682Y-10536484D02*
X13951015Y-10536484D01*
X13951015Y-10536484D02*
X13865301Y-10736484D01*
X14179587Y-10736484D02*
X14179587Y-10536484D01*
X14265301Y-10736484D02*
X14265301Y-10631722D01*
X14265301Y-10631722D02*
X14255777Y-10612674D01*
X14255777Y-10612674D02*
X14236730Y-10603150D01*
X14236730Y-10603150D02*
X14208158Y-10603150D01*
X14208158Y-10603150D02*
X14189110Y-10612674D01*
X14189110Y-10612674D02*
X14179587Y-10622198D01*
X14389110Y-10736484D02*
X14370063Y-10726960D01*
X14370063Y-10726960D02*
X14360539Y-10717436D01*
X14360539Y-10717436D02*
X14351015Y-10698389D01*
X14351015Y-10698389D02*
X14351015Y-10641246D01*
X14351015Y-10641246D02*
X14360539Y-10622198D01*
X14360539Y-10622198D02*
X14370063Y-10612674D01*
X14370063Y-10612674D02*
X14389110Y-10603150D01*
X14389110Y-10603150D02*
X14417682Y-10603150D01*
X14417682Y-10603150D02*
X14436730Y-10612674D01*
X14436730Y-10612674D02*
X14446253Y-10622198D01*
X14446253Y-10622198D02*
X14455777Y-10641246D01*
X14455777Y-10641246D02*
X14455777Y-10698389D01*
X14455777Y-10698389D02*
X14446253Y-10717436D01*
X14446253Y-10717436D02*
X14436730Y-10726960D01*
X14436730Y-10726960D02*
X14417682Y-10736484D01*
X14417682Y-10736484D02*
X14389110Y-10736484D01*
X14570063Y-10736484D02*
X14551015Y-10726960D01*
X14551015Y-10726960D02*
X14541491Y-10707912D01*
X14541491Y-10707912D02*
X14541491Y-10536484D01*
X14722444Y-10726960D02*
X14703396Y-10736484D01*
X14703396Y-10736484D02*
X14665301Y-10736484D01*
X14665301Y-10736484D02*
X14646253Y-10726960D01*
X14646253Y-10726960D02*
X14636730Y-10707912D01*
X14636730Y-10707912D02*
X14636730Y-10631722D01*
X14636730Y-10631722D02*
X14646253Y-10612674D01*
X14646253Y-10612674D02*
X14665301Y-10603150D01*
X14665301Y-10603150D02*
X14703396Y-10603150D01*
X14703396Y-10603150D02*
X14722444Y-10612674D01*
X14722444Y-10612674D02*
X14731968Y-10631722D01*
X14731968Y-10631722D02*
X14731968Y-10650770D01*
X14731968Y-10650770D02*
X14636730Y-10669817D01*
X14808158Y-10726960D02*
X14827206Y-10736484D01*
X14827206Y-10736484D02*
X14865301Y-10736484D01*
X14865301Y-10736484D02*
X14884349Y-10726960D01*
X14884349Y-10726960D02*
X14893872Y-10707912D01*
X14893872Y-10707912D02*
X14893872Y-10698389D01*
X14893872Y-10698389D02*
X14884349Y-10679341D01*
X14884349Y-10679341D02*
X14865301Y-10669817D01*
X14865301Y-10669817D02*
X14836730Y-10669817D01*
X14836730Y-10669817D02*
X14817682Y-10660293D01*
X14817682Y-10660293D02*
X14808158Y-10641246D01*
X14808158Y-10641246D02*
X14808158Y-10631722D01*
X14808158Y-10631722D02*
X14817682Y-10612674D01*
X14817682Y-10612674D02*
X14836730Y-10603150D01*
X14836730Y-10603150D02*
X14865301Y-10603150D01*
X14865301Y-10603150D02*
X14884349Y-10612674D01*
X14960539Y-10812674D02*
X14970063Y-10803150D01*
X14970063Y-10803150D02*
X14989111Y-10774579D01*
X14989111Y-10774579D02*
X14998634Y-10755531D01*
X14998634Y-10755531D02*
X15008158Y-10726960D01*
X15008158Y-10726960D02*
X15017682Y-10679341D01*
X15017682Y-10679341D02*
X15017682Y-10641246D01*
X15017682Y-10641246D02*
X15008158Y-10593627D01*
X15008158Y-10593627D02*
X14998634Y-10565055D01*
X14998634Y-10565055D02*
X14989111Y-10546008D01*
X14989111Y-10546008D02*
X14970063Y-10517436D01*
X14970063Y-10517436D02*
X14960539Y-10507912D01*
D10*
X9995000Y-10909000D02*
G75*
G03*
X9995000Y-10909000I-38100J0D01*
G01*
D11*
X10293872Y-10800484D02*
X10312920Y-10800484D01*
X10312920Y-10800484D02*
X10331967Y-10810008D01*
X10331967Y-10810008D02*
X10341491Y-10819531D01*
X10341491Y-10819531D02*
X10351015Y-10838579D01*
X10351015Y-10838579D02*
X10360539Y-10876674D01*
X10360539Y-10876674D02*
X10360539Y-10924293D01*
X10360539Y-10924293D02*
X10351015Y-10962389D01*
X10351015Y-10962389D02*
X10341491Y-10981436D01*
X10341491Y-10981436D02*
X10331967Y-10990960D01*
X10331967Y-10990960D02*
X10312920Y-11000484D01*
X10312920Y-11000484D02*
X10293872Y-11000484D01*
X10293872Y-11000484D02*
X10274824Y-10990960D01*
X10274824Y-10990960D02*
X10265301Y-10981436D01*
X10265301Y-10981436D02*
X10255777Y-10962389D01*
X10255777Y-10962389D02*
X10246253Y-10924293D01*
X10246253Y-10924293D02*
X10246253Y-10876674D01*
X10246253Y-10876674D02*
X10255777Y-10838579D01*
X10255777Y-10838579D02*
X10265301Y-10819531D01*
X10265301Y-10819531D02*
X10274824Y-10810008D01*
X10274824Y-10810008D02*
X10293872Y-10800484D01*
X10446253Y-10981436D02*
X10455777Y-10990960D01*
X10455777Y-10990960D02*
X10446253Y-11000484D01*
X10446253Y-11000484D02*
X10436729Y-10990960D01*
X10436729Y-10990960D02*
X10446253Y-10981436D01*
X10446253Y-10981436D02*
X10446253Y-11000484D01*
X10522444Y-10800484D02*
X10655777Y-10800484D01*
X10655777Y-10800484D02*
X10570063Y-11000484D01*
X10817682Y-10800484D02*
X10779586Y-10800484D01*
X10779586Y-10800484D02*
X10760539Y-10810008D01*
X10760539Y-10810008D02*
X10751015Y-10819531D01*
X10751015Y-10819531D02*
X10731967Y-10848103D01*
X10731967Y-10848103D02*
X10722444Y-10886198D01*
X10722444Y-10886198D02*
X10722444Y-10962389D01*
X10722444Y-10962389D02*
X10731967Y-10981436D01*
X10731967Y-10981436D02*
X10741491Y-10990960D01*
X10741491Y-10990960D02*
X10760539Y-11000484D01*
X10760539Y-11000484D02*
X10798634Y-11000484D01*
X10798634Y-11000484D02*
X10817682Y-10990960D01*
X10817682Y-10990960D02*
X10827205Y-10981436D01*
X10827205Y-10981436D02*
X10836729Y-10962389D01*
X10836729Y-10962389D02*
X10836729Y-10914770D01*
X10836729Y-10914770D02*
X10827205Y-10895722D01*
X10827205Y-10895722D02*
X10817682Y-10886198D01*
X10817682Y-10886198D02*
X10798634Y-10876674D01*
X10798634Y-10876674D02*
X10760539Y-10876674D01*
X10760539Y-10876674D02*
X10741491Y-10886198D01*
X10741491Y-10886198D02*
X10731967Y-10895722D01*
X10731967Y-10895722D02*
X10722444Y-10914770D01*
X10912920Y-10819531D02*
X10922444Y-10810008D01*
X10922444Y-10810008D02*
X10941491Y-10800484D01*
X10941491Y-10800484D02*
X10989110Y-10800484D01*
X10989110Y-10800484D02*
X11008158Y-10810008D01*
X11008158Y-10810008D02*
X11017682Y-10819531D01*
X11017682Y-10819531D02*
X11027205Y-10838579D01*
X11027205Y-10838579D02*
X11027205Y-10857627D01*
X11027205Y-10857627D02*
X11017682Y-10886198D01*
X11017682Y-10886198D02*
X10903396Y-11000484D01*
X10903396Y-11000484D02*
X11027205Y-11000484D01*
X11112920Y-11000484D02*
X11112920Y-10867150D01*
X11112920Y-10886198D02*
X11122444Y-10876674D01*
X11122444Y-10876674D02*
X11141491Y-10867150D01*
X11141491Y-10867150D02*
X11170063Y-10867150D01*
X11170063Y-10867150D02*
X11189110Y-10876674D01*
X11189110Y-10876674D02*
X11198634Y-10895722D01*
X11198634Y-10895722D02*
X11198634Y-11000484D01*
X11198634Y-10895722D02*
X11208158Y-10876674D01*
X11208158Y-10876674D02*
X11227205Y-10867150D01*
X11227205Y-10867150D02*
X11255777Y-10867150D01*
X11255777Y-10867150D02*
X11274824Y-10876674D01*
X11274824Y-10876674D02*
X11284348Y-10895722D01*
X11284348Y-10895722D02*
X11284348Y-11000484D01*
X11379586Y-11000484D02*
X11379586Y-10867150D01*
X11379586Y-10886198D02*
X11389110Y-10876674D01*
X11389110Y-10876674D02*
X11408158Y-10867150D01*
X11408158Y-10867150D02*
X11436729Y-10867150D01*
X11436729Y-10867150D02*
X11455777Y-10876674D01*
X11455777Y-10876674D02*
X11465301Y-10895722D01*
X11465301Y-10895722D02*
X11465301Y-11000484D01*
X11465301Y-10895722D02*
X11474824Y-10876674D01*
X11474824Y-10876674D02*
X11493872Y-10867150D01*
X11493872Y-10867150D02*
X11522443Y-10867150D01*
X11522443Y-10867150D02*
X11541491Y-10876674D01*
X11541491Y-10876674D02*
X11551015Y-10895722D01*
X11551015Y-10895722D02*
X11551015Y-11000484D01*
X11941491Y-10790960D02*
X11770063Y-11048103D01*
X12198634Y-10800484D02*
X12217682Y-10800484D01*
X12217682Y-10800484D02*
X12236729Y-10810008D01*
X12236729Y-10810008D02*
X12246253Y-10819531D01*
X12246253Y-10819531D02*
X12255777Y-10838579D01*
X12255777Y-10838579D02*
X12265301Y-10876674D01*
X12265301Y-10876674D02*
X12265301Y-10924293D01*
X12265301Y-10924293D02*
X12255777Y-10962389D01*
X12255777Y-10962389D02*
X12246253Y-10981436D01*
X12246253Y-10981436D02*
X12236729Y-10990960D01*
X12236729Y-10990960D02*
X12217682Y-11000484D01*
X12217682Y-11000484D02*
X12198634Y-11000484D01*
X12198634Y-11000484D02*
X12179586Y-10990960D01*
X12179586Y-10990960D02*
X12170063Y-10981436D01*
X12170063Y-10981436D02*
X12160539Y-10962389D01*
X12160539Y-10962389D02*
X12151015Y-10924293D01*
X12151015Y-10924293D02*
X12151015Y-10876674D01*
X12151015Y-10876674D02*
X12160539Y-10838579D01*
X12160539Y-10838579D02*
X12170063Y-10819531D01*
X12170063Y-10819531D02*
X12179586Y-10810008D01*
X12179586Y-10810008D02*
X12198634Y-10800484D01*
X12351015Y-10981436D02*
X12360539Y-10990960D01*
X12360539Y-10990960D02*
X12351015Y-11000484D01*
X12351015Y-11000484D02*
X12341491Y-10990960D01*
X12341491Y-10990960D02*
X12351015Y-10981436D01*
X12351015Y-10981436D02*
X12351015Y-11000484D01*
X12484348Y-10800484D02*
X12503396Y-10800484D01*
X12503396Y-10800484D02*
X12522444Y-10810008D01*
X12522444Y-10810008D02*
X12531967Y-10819531D01*
X12531967Y-10819531D02*
X12541491Y-10838579D01*
X12541491Y-10838579D02*
X12551015Y-10876674D01*
X12551015Y-10876674D02*
X12551015Y-10924293D01*
X12551015Y-10924293D02*
X12541491Y-10962389D01*
X12541491Y-10962389D02*
X12531967Y-10981436D01*
X12531967Y-10981436D02*
X12522444Y-10990960D01*
X12522444Y-10990960D02*
X12503396Y-11000484D01*
X12503396Y-11000484D02*
X12484348Y-11000484D01*
X12484348Y-11000484D02*
X12465301Y-10990960D01*
X12465301Y-10990960D02*
X12455777Y-10981436D01*
X12455777Y-10981436D02*
X12446253Y-10962389D01*
X12446253Y-10962389D02*
X12436729Y-10924293D01*
X12436729Y-10924293D02*
X12436729Y-10876674D01*
X12436729Y-10876674D02*
X12446253Y-10838579D01*
X12446253Y-10838579D02*
X12455777Y-10819531D01*
X12455777Y-10819531D02*
X12465301Y-10810008D01*
X12465301Y-10810008D02*
X12484348Y-10800484D01*
X12617682Y-10800484D02*
X12741491Y-10800484D01*
X12741491Y-10800484D02*
X12674825Y-10876674D01*
X12674825Y-10876674D02*
X12703396Y-10876674D01*
X12703396Y-10876674D02*
X12722444Y-10886198D01*
X12722444Y-10886198D02*
X12731967Y-10895722D01*
X12731967Y-10895722D02*
X12741491Y-10914770D01*
X12741491Y-10914770D02*
X12741491Y-10962389D01*
X12741491Y-10962389D02*
X12731967Y-10981436D01*
X12731967Y-10981436D02*
X12722444Y-10990960D01*
X12722444Y-10990960D02*
X12703396Y-11000484D01*
X12703396Y-11000484D02*
X12646253Y-11000484D01*
X12646253Y-11000484D02*
X12627206Y-10990960D01*
X12627206Y-10990960D02*
X12617682Y-10981436D01*
X12865301Y-10800484D02*
X12884348Y-10800484D01*
X12884348Y-10800484D02*
X12903396Y-10810008D01*
X12903396Y-10810008D02*
X12912920Y-10819531D01*
X12912920Y-10819531D02*
X12922444Y-10838579D01*
X12922444Y-10838579D02*
X12931967Y-10876674D01*
X12931967Y-10876674D02*
X12931967Y-10924293D01*
X12931967Y-10924293D02*
X12922444Y-10962389D01*
X12922444Y-10962389D02*
X12912920Y-10981436D01*
X12912920Y-10981436D02*
X12903396Y-10990960D01*
X12903396Y-10990960D02*
X12884348Y-11000484D01*
X12884348Y-11000484D02*
X12865301Y-11000484D01*
X12865301Y-11000484D02*
X12846253Y-10990960D01*
X12846253Y-10990960D02*
X12836729Y-10981436D01*
X12836729Y-10981436D02*
X12827206Y-10962389D01*
X12827206Y-10962389D02*
X12817682Y-10924293D01*
X12817682Y-10924293D02*
X12817682Y-10876674D01*
X12817682Y-10876674D02*
X12827206Y-10838579D01*
X12827206Y-10838579D02*
X12836729Y-10819531D01*
X12836729Y-10819531D02*
X12846253Y-10810008D01*
X12846253Y-10810008D02*
X12865301Y-10800484D01*
X13055777Y-10800484D02*
X13074825Y-10800484D01*
X13074825Y-10800484D02*
X13093872Y-10810008D01*
X13093872Y-10810008D02*
X13103396Y-10819531D01*
X13103396Y-10819531D02*
X13112920Y-10838579D01*
X13112920Y-10838579D02*
X13122444Y-10876674D01*
X13122444Y-10876674D02*
X13122444Y-10924293D01*
X13122444Y-10924293D02*
X13112920Y-10962389D01*
X13112920Y-10962389D02*
X13103396Y-10981436D01*
X13103396Y-10981436D02*
X13093872Y-10990960D01*
X13093872Y-10990960D02*
X13074825Y-11000484D01*
X13074825Y-11000484D02*
X13055777Y-11000484D01*
X13055777Y-11000484D02*
X13036729Y-10990960D01*
X13036729Y-10990960D02*
X13027206Y-10981436D01*
X13027206Y-10981436D02*
X13017682Y-10962389D01*
X13017682Y-10962389D02*
X13008158Y-10924293D01*
X13008158Y-10924293D02*
X13008158Y-10876674D01*
X13008158Y-10876674D02*
X13017682Y-10838579D01*
X13017682Y-10838579D02*
X13027206Y-10819531D01*
X13027206Y-10819531D02*
X13036729Y-10810008D01*
X13036729Y-10810008D02*
X13055777Y-10800484D01*
X13198634Y-10800484D02*
X13198634Y-10838579D01*
X13274825Y-10800484D02*
X13274825Y-10838579D01*
X13570063Y-11076674D02*
X13560539Y-11067150D01*
X13560539Y-11067150D02*
X13541491Y-11038579D01*
X13541491Y-11038579D02*
X13531968Y-11019531D01*
X13531968Y-11019531D02*
X13522444Y-10990960D01*
X13522444Y-10990960D02*
X13512920Y-10943341D01*
X13512920Y-10943341D02*
X13512920Y-10905246D01*
X13512920Y-10905246D02*
X13522444Y-10857627D01*
X13522444Y-10857627D02*
X13531968Y-10829055D01*
X13531968Y-10829055D02*
X13541491Y-10810008D01*
X13541491Y-10810008D02*
X13560539Y-10781436D01*
X13560539Y-10781436D02*
X13570063Y-10771912D01*
X13731968Y-10867150D02*
X13731968Y-11000484D01*
X13684348Y-10790960D02*
X13636729Y-10933817D01*
X13636729Y-10933817D02*
X13760539Y-10933817D01*
X13865301Y-10886198D02*
X13846253Y-10876674D01*
X13846253Y-10876674D02*
X13836729Y-10867150D01*
X13836729Y-10867150D02*
X13827206Y-10848103D01*
X13827206Y-10848103D02*
X13827206Y-10838579D01*
X13827206Y-10838579D02*
X13836729Y-10819531D01*
X13836729Y-10819531D02*
X13846253Y-10810008D01*
X13846253Y-10810008D02*
X13865301Y-10800484D01*
X13865301Y-10800484D02*
X13903396Y-10800484D01*
X13903396Y-10800484D02*
X13922444Y-10810008D01*
X13922444Y-10810008D02*
X13931968Y-10819531D01*
X13931968Y-10819531D02*
X13941491Y-10838579D01*
X13941491Y-10838579D02*
X13941491Y-10848103D01*
X13941491Y-10848103D02*
X13931968Y-10867150D01*
X13931968Y-10867150D02*
X13922444Y-10876674D01*
X13922444Y-10876674D02*
X13903396Y-10886198D01*
X13903396Y-10886198D02*
X13865301Y-10886198D01*
X13865301Y-10886198D02*
X13846253Y-10895722D01*
X13846253Y-10895722D02*
X13836729Y-10905246D01*
X13836729Y-10905246D02*
X13827206Y-10924293D01*
X13827206Y-10924293D02*
X13827206Y-10962389D01*
X13827206Y-10962389D02*
X13836729Y-10981436D01*
X13836729Y-10981436D02*
X13846253Y-10990960D01*
X13846253Y-10990960D02*
X13865301Y-11000484D01*
X13865301Y-11000484D02*
X13903396Y-11000484D01*
X13903396Y-11000484D02*
X13922444Y-10990960D01*
X13922444Y-10990960D02*
X13931968Y-10981436D01*
X13931968Y-10981436D02*
X13941491Y-10962389D01*
X13941491Y-10962389D02*
X13941491Y-10924293D01*
X13941491Y-10924293D02*
X13931968Y-10905246D01*
X13931968Y-10905246D02*
X13922444Y-10895722D01*
X13922444Y-10895722D02*
X13903396Y-10886198D01*
X14179587Y-11000484D02*
X14179587Y-10800484D01*
X14265301Y-11000484D02*
X14265301Y-10895722D01*
X14265301Y-10895722D02*
X14255777Y-10876674D01*
X14255777Y-10876674D02*
X14236730Y-10867150D01*
X14236730Y-10867150D02*
X14208158Y-10867150D01*
X14208158Y-10867150D02*
X14189110Y-10876674D01*
X14189110Y-10876674D02*
X14179587Y-10886198D01*
X14389110Y-11000484D02*
X14370063Y-10990960D01*
X14370063Y-10990960D02*
X14360539Y-10981436D01*
X14360539Y-10981436D02*
X14351015Y-10962389D01*
X14351015Y-10962389D02*
X14351015Y-10905246D01*
X14351015Y-10905246D02*
X14360539Y-10886198D01*
X14360539Y-10886198D02*
X14370063Y-10876674D01*
X14370063Y-10876674D02*
X14389110Y-10867150D01*
X14389110Y-10867150D02*
X14417682Y-10867150D01*
X14417682Y-10867150D02*
X14436730Y-10876674D01*
X14436730Y-10876674D02*
X14446253Y-10886198D01*
X14446253Y-10886198D02*
X14455777Y-10905246D01*
X14455777Y-10905246D02*
X14455777Y-10962389D01*
X14455777Y-10962389D02*
X14446253Y-10981436D01*
X14446253Y-10981436D02*
X14436730Y-10990960D01*
X14436730Y-10990960D02*
X14417682Y-11000484D01*
X14417682Y-11000484D02*
X14389110Y-11000484D01*
X14570063Y-11000484D02*
X14551015Y-10990960D01*
X14551015Y-10990960D02*
X14541491Y-10971912D01*
X14541491Y-10971912D02*
X14541491Y-10800484D01*
X14722444Y-10990960D02*
X14703396Y-11000484D01*
X14703396Y-11000484D02*
X14665301Y-11000484D01*
X14665301Y-11000484D02*
X14646253Y-10990960D01*
X14646253Y-10990960D02*
X14636730Y-10971912D01*
X14636730Y-10971912D02*
X14636730Y-10895722D01*
X14636730Y-10895722D02*
X14646253Y-10876674D01*
X14646253Y-10876674D02*
X14665301Y-10867150D01*
X14665301Y-10867150D02*
X14703396Y-10867150D01*
X14703396Y-10867150D02*
X14722444Y-10876674D01*
X14722444Y-10876674D02*
X14731968Y-10895722D01*
X14731968Y-10895722D02*
X14731968Y-10914770D01*
X14731968Y-10914770D02*
X14636730Y-10933817D01*
X14808158Y-10990960D02*
X14827206Y-11000484D01*
X14827206Y-11000484D02*
X14865301Y-11000484D01*
X14865301Y-11000484D02*
X14884349Y-10990960D01*
X14884349Y-10990960D02*
X14893872Y-10971912D01*
X14893872Y-10971912D02*
X14893872Y-10962389D01*
X14893872Y-10962389D02*
X14884349Y-10943341D01*
X14884349Y-10943341D02*
X14865301Y-10933817D01*
X14865301Y-10933817D02*
X14836730Y-10933817D01*
X14836730Y-10933817D02*
X14817682Y-10924293D01*
X14817682Y-10924293D02*
X14808158Y-10905246D01*
X14808158Y-10905246D02*
X14808158Y-10895722D01*
X14808158Y-10895722D02*
X14817682Y-10876674D01*
X14817682Y-10876674D02*
X14836730Y-10867150D01*
X14836730Y-10867150D02*
X14865301Y-10867150D01*
X14865301Y-10867150D02*
X14884349Y-10876674D01*
X14960539Y-11076674D02*
X14970063Y-11067150D01*
X14970063Y-11067150D02*
X14989111Y-11038579D01*
X14989111Y-11038579D02*
X14998634Y-11019531D01*
X14998634Y-11019531D02*
X15008158Y-10990960D01*
X15008158Y-10990960D02*
X15017682Y-10943341D01*
X15017682Y-10943341D02*
X15017682Y-10905246D01*
X15017682Y-10905246D02*
X15008158Y-10857627D01*
X15008158Y-10857627D02*
X14998634Y-10829055D01*
X14998634Y-10829055D02*
X14989111Y-10810008D01*
X14989111Y-10810008D02*
X14970063Y-10781436D01*
X14970063Y-10781436D02*
X14960539Y-10771912D01*
D10*
X9955000Y-11133000D02*
X9955000Y-11213000D01*
X9915000Y-11173000D02*
X9995000Y-11173000D01*
D11*
X10293872Y-11064484D02*
X10312920Y-11064484D01*
X10312920Y-11064484D02*
X10331967Y-11074008D01*
X10331967Y-11074008D02*
X10341491Y-11083531D01*
X10341491Y-11083531D02*
X10351015Y-11102579D01*
X10351015Y-11102579D02*
X10360539Y-11140674D01*
X10360539Y-11140674D02*
X10360539Y-11188293D01*
X10360539Y-11188293D02*
X10351015Y-11226388D01*
X10351015Y-11226388D02*
X10341491Y-11245436D01*
X10341491Y-11245436D02*
X10331967Y-11254960D01*
X10331967Y-11254960D02*
X10312920Y-11264484D01*
X10312920Y-11264484D02*
X10293872Y-11264484D01*
X10293872Y-11264484D02*
X10274824Y-11254960D01*
X10274824Y-11254960D02*
X10265301Y-11245436D01*
X10265301Y-11245436D02*
X10255777Y-11226388D01*
X10255777Y-11226388D02*
X10246253Y-11188293D01*
X10246253Y-11188293D02*
X10246253Y-11140674D01*
X10246253Y-11140674D02*
X10255777Y-11102579D01*
X10255777Y-11102579D02*
X10265301Y-11083531D01*
X10265301Y-11083531D02*
X10274824Y-11074008D01*
X10274824Y-11074008D02*
X10293872Y-11064484D01*
X10446253Y-11245436D02*
X10455777Y-11254960D01*
X10455777Y-11254960D02*
X10446253Y-11264484D01*
X10446253Y-11264484D02*
X10436729Y-11254960D01*
X10436729Y-11254960D02*
X10446253Y-11245436D01*
X10446253Y-11245436D02*
X10446253Y-11264484D01*
X10570063Y-11150198D02*
X10551015Y-11140674D01*
X10551015Y-11140674D02*
X10541491Y-11131150D01*
X10541491Y-11131150D02*
X10531967Y-11112103D01*
X10531967Y-11112103D02*
X10531967Y-11102579D01*
X10531967Y-11102579D02*
X10541491Y-11083531D01*
X10541491Y-11083531D02*
X10551015Y-11074008D01*
X10551015Y-11074008D02*
X10570063Y-11064484D01*
X10570063Y-11064484D02*
X10608158Y-11064484D01*
X10608158Y-11064484D02*
X10627205Y-11074008D01*
X10627205Y-11074008D02*
X10636729Y-11083531D01*
X10636729Y-11083531D02*
X10646253Y-11102579D01*
X10646253Y-11102579D02*
X10646253Y-11112103D01*
X10646253Y-11112103D02*
X10636729Y-11131150D01*
X10636729Y-11131150D02*
X10627205Y-11140674D01*
X10627205Y-11140674D02*
X10608158Y-11150198D01*
X10608158Y-11150198D02*
X10570063Y-11150198D01*
X10570063Y-11150198D02*
X10551015Y-11159722D01*
X10551015Y-11159722D02*
X10541491Y-11169246D01*
X10541491Y-11169246D02*
X10531967Y-11188293D01*
X10531967Y-11188293D02*
X10531967Y-11226388D01*
X10531967Y-11226388D02*
X10541491Y-11245436D01*
X10541491Y-11245436D02*
X10551015Y-11254960D01*
X10551015Y-11254960D02*
X10570063Y-11264484D01*
X10570063Y-11264484D02*
X10608158Y-11264484D01*
X10608158Y-11264484D02*
X10627205Y-11254960D01*
X10627205Y-11254960D02*
X10636729Y-11245436D01*
X10636729Y-11245436D02*
X10646253Y-11226388D01*
X10646253Y-11226388D02*
X10646253Y-11188293D01*
X10646253Y-11188293D02*
X10636729Y-11169246D01*
X10636729Y-11169246D02*
X10627205Y-11159722D01*
X10627205Y-11159722D02*
X10608158Y-11150198D01*
X10770063Y-11064484D02*
X10789110Y-11064484D01*
X10789110Y-11064484D02*
X10808158Y-11074008D01*
X10808158Y-11074008D02*
X10817682Y-11083531D01*
X10817682Y-11083531D02*
X10827205Y-11102579D01*
X10827205Y-11102579D02*
X10836729Y-11140674D01*
X10836729Y-11140674D02*
X10836729Y-11188293D01*
X10836729Y-11188293D02*
X10827205Y-11226388D01*
X10827205Y-11226388D02*
X10817682Y-11245436D01*
X10817682Y-11245436D02*
X10808158Y-11254960D01*
X10808158Y-11254960D02*
X10789110Y-11264484D01*
X10789110Y-11264484D02*
X10770063Y-11264484D01*
X10770063Y-11264484D02*
X10751015Y-11254960D01*
X10751015Y-11254960D02*
X10741491Y-11245436D01*
X10741491Y-11245436D02*
X10731967Y-11226388D01*
X10731967Y-11226388D02*
X10722444Y-11188293D01*
X10722444Y-11188293D02*
X10722444Y-11140674D01*
X10722444Y-11140674D02*
X10731967Y-11102579D01*
X10731967Y-11102579D02*
X10741491Y-11083531D01*
X10741491Y-11083531D02*
X10751015Y-11074008D01*
X10751015Y-11074008D02*
X10770063Y-11064484D01*
X10960539Y-11064484D02*
X10979586Y-11064484D01*
X10979586Y-11064484D02*
X10998634Y-11074008D01*
X10998634Y-11074008D02*
X11008158Y-11083531D01*
X11008158Y-11083531D02*
X11017682Y-11102579D01*
X11017682Y-11102579D02*
X11027205Y-11140674D01*
X11027205Y-11140674D02*
X11027205Y-11188293D01*
X11027205Y-11188293D02*
X11017682Y-11226388D01*
X11017682Y-11226388D02*
X11008158Y-11245436D01*
X11008158Y-11245436D02*
X10998634Y-11254960D01*
X10998634Y-11254960D02*
X10979586Y-11264484D01*
X10979586Y-11264484D02*
X10960539Y-11264484D01*
X10960539Y-11264484D02*
X10941491Y-11254960D01*
X10941491Y-11254960D02*
X10931967Y-11245436D01*
X10931967Y-11245436D02*
X10922444Y-11226388D01*
X10922444Y-11226388D02*
X10912920Y-11188293D01*
X10912920Y-11188293D02*
X10912920Y-11140674D01*
X10912920Y-11140674D02*
X10922444Y-11102579D01*
X10922444Y-11102579D02*
X10931967Y-11083531D01*
X10931967Y-11083531D02*
X10941491Y-11074008D01*
X10941491Y-11074008D02*
X10960539Y-11064484D01*
X11112920Y-11264484D02*
X11112920Y-11131150D01*
X11112920Y-11150198D02*
X11122444Y-11140674D01*
X11122444Y-11140674D02*
X11141491Y-11131150D01*
X11141491Y-11131150D02*
X11170063Y-11131150D01*
X11170063Y-11131150D02*
X11189110Y-11140674D01*
X11189110Y-11140674D02*
X11198634Y-11159722D01*
X11198634Y-11159722D02*
X11198634Y-11264484D01*
X11198634Y-11159722D02*
X11208158Y-11140674D01*
X11208158Y-11140674D02*
X11227205Y-11131150D01*
X11227205Y-11131150D02*
X11255777Y-11131150D01*
X11255777Y-11131150D02*
X11274824Y-11140674D01*
X11274824Y-11140674D02*
X11284348Y-11159722D01*
X11284348Y-11159722D02*
X11284348Y-11264484D01*
X11379586Y-11264484D02*
X11379586Y-11131150D01*
X11379586Y-11150198D02*
X11389110Y-11140674D01*
X11389110Y-11140674D02*
X11408158Y-11131150D01*
X11408158Y-11131150D02*
X11436729Y-11131150D01*
X11436729Y-11131150D02*
X11455777Y-11140674D01*
X11455777Y-11140674D02*
X11465301Y-11159722D01*
X11465301Y-11159722D02*
X11465301Y-11264484D01*
X11465301Y-11159722D02*
X11474824Y-11140674D01*
X11474824Y-11140674D02*
X11493872Y-11131150D01*
X11493872Y-11131150D02*
X11522443Y-11131150D01*
X11522443Y-11131150D02*
X11541491Y-11140674D01*
X11541491Y-11140674D02*
X11551015Y-11159722D01*
X11551015Y-11159722D02*
X11551015Y-11264484D01*
X11941491Y-11054960D02*
X11770063Y-11312103D01*
X12198634Y-11064484D02*
X12217682Y-11064484D01*
X12217682Y-11064484D02*
X12236729Y-11074008D01*
X12236729Y-11074008D02*
X12246253Y-11083531D01*
X12246253Y-11083531D02*
X12255777Y-11102579D01*
X12255777Y-11102579D02*
X12265301Y-11140674D01*
X12265301Y-11140674D02*
X12265301Y-11188293D01*
X12265301Y-11188293D02*
X12255777Y-11226388D01*
X12255777Y-11226388D02*
X12246253Y-11245436D01*
X12246253Y-11245436D02*
X12236729Y-11254960D01*
X12236729Y-11254960D02*
X12217682Y-11264484D01*
X12217682Y-11264484D02*
X12198634Y-11264484D01*
X12198634Y-11264484D02*
X12179586Y-11254960D01*
X12179586Y-11254960D02*
X12170063Y-11245436D01*
X12170063Y-11245436D02*
X12160539Y-11226388D01*
X12160539Y-11226388D02*
X12151015Y-11188293D01*
X12151015Y-11188293D02*
X12151015Y-11140674D01*
X12151015Y-11140674D02*
X12160539Y-11102579D01*
X12160539Y-11102579D02*
X12170063Y-11083531D01*
X12170063Y-11083531D02*
X12179586Y-11074008D01*
X12179586Y-11074008D02*
X12198634Y-11064484D01*
X12351015Y-11245436D02*
X12360539Y-11254960D01*
X12360539Y-11254960D02*
X12351015Y-11264484D01*
X12351015Y-11264484D02*
X12341491Y-11254960D01*
X12341491Y-11254960D02*
X12351015Y-11245436D01*
X12351015Y-11245436D02*
X12351015Y-11264484D01*
X12484348Y-11064484D02*
X12503396Y-11064484D01*
X12503396Y-11064484D02*
X12522444Y-11074008D01*
X12522444Y-11074008D02*
X12531967Y-11083531D01*
X12531967Y-11083531D02*
X12541491Y-11102579D01*
X12541491Y-11102579D02*
X12551015Y-11140674D01*
X12551015Y-11140674D02*
X12551015Y-11188293D01*
X12551015Y-11188293D02*
X12541491Y-11226388D01*
X12541491Y-11226388D02*
X12531967Y-11245436D01*
X12531967Y-11245436D02*
X12522444Y-11254960D01*
X12522444Y-11254960D02*
X12503396Y-11264484D01*
X12503396Y-11264484D02*
X12484348Y-11264484D01*
X12484348Y-11264484D02*
X12465301Y-11254960D01*
X12465301Y-11254960D02*
X12455777Y-11245436D01*
X12455777Y-11245436D02*
X12446253Y-11226388D01*
X12446253Y-11226388D02*
X12436729Y-11188293D01*
X12436729Y-11188293D02*
X12436729Y-11140674D01*
X12436729Y-11140674D02*
X12446253Y-11102579D01*
X12446253Y-11102579D02*
X12455777Y-11083531D01*
X12455777Y-11083531D02*
X12465301Y-11074008D01*
X12465301Y-11074008D02*
X12484348Y-11064484D01*
X12617682Y-11064484D02*
X12741491Y-11064484D01*
X12741491Y-11064484D02*
X12674825Y-11140674D01*
X12674825Y-11140674D02*
X12703396Y-11140674D01*
X12703396Y-11140674D02*
X12722444Y-11150198D01*
X12722444Y-11150198D02*
X12731967Y-11159722D01*
X12731967Y-11159722D02*
X12741491Y-11178770D01*
X12741491Y-11178770D02*
X12741491Y-11226388D01*
X12741491Y-11226388D02*
X12731967Y-11245436D01*
X12731967Y-11245436D02*
X12722444Y-11254960D01*
X12722444Y-11254960D02*
X12703396Y-11264484D01*
X12703396Y-11264484D02*
X12646253Y-11264484D01*
X12646253Y-11264484D02*
X12627206Y-11254960D01*
X12627206Y-11254960D02*
X12617682Y-11245436D01*
X12931967Y-11264484D02*
X12817682Y-11264484D01*
X12874825Y-11264484D02*
X12874825Y-11064484D01*
X12874825Y-11064484D02*
X12855777Y-11093055D01*
X12855777Y-11093055D02*
X12836729Y-11112103D01*
X12836729Y-11112103D02*
X12817682Y-11121627D01*
X13112920Y-11064484D02*
X13017682Y-11064484D01*
X13017682Y-11064484D02*
X13008158Y-11159722D01*
X13008158Y-11159722D02*
X13017682Y-11150198D01*
X13017682Y-11150198D02*
X13036729Y-11140674D01*
X13036729Y-11140674D02*
X13084348Y-11140674D01*
X13084348Y-11140674D02*
X13103396Y-11150198D01*
X13103396Y-11150198D02*
X13112920Y-11159722D01*
X13112920Y-11159722D02*
X13122444Y-11178770D01*
X13122444Y-11178770D02*
X13122444Y-11226388D01*
X13122444Y-11226388D02*
X13112920Y-11245436D01*
X13112920Y-11245436D02*
X13103396Y-11254960D01*
X13103396Y-11254960D02*
X13084348Y-11264484D01*
X13084348Y-11264484D02*
X13036729Y-11264484D01*
X13036729Y-11264484D02*
X13017682Y-11254960D01*
X13017682Y-11254960D02*
X13008158Y-11245436D01*
X13198634Y-11064484D02*
X13198634Y-11102579D01*
X13274825Y-11064484D02*
X13274825Y-11102579D01*
X13570063Y-11340674D02*
X13560539Y-11331150D01*
X13560539Y-11331150D02*
X13541491Y-11302579D01*
X13541491Y-11302579D02*
X13531968Y-11283531D01*
X13531968Y-11283531D02*
X13522444Y-11254960D01*
X13522444Y-11254960D02*
X13512920Y-11207341D01*
X13512920Y-11207341D02*
X13512920Y-11169246D01*
X13512920Y-11169246D02*
X13522444Y-11121627D01*
X13522444Y-11121627D02*
X13531968Y-11093055D01*
X13531968Y-11093055D02*
X13541491Y-11074008D01*
X13541491Y-11074008D02*
X13560539Y-11045436D01*
X13560539Y-11045436D02*
X13570063Y-11035912D01*
X13731968Y-11064484D02*
X13693872Y-11064484D01*
X13693872Y-11064484D02*
X13674825Y-11074008D01*
X13674825Y-11074008D02*
X13665301Y-11083531D01*
X13665301Y-11083531D02*
X13646253Y-11112103D01*
X13646253Y-11112103D02*
X13636729Y-11150198D01*
X13636729Y-11150198D02*
X13636729Y-11226388D01*
X13636729Y-11226388D02*
X13646253Y-11245436D01*
X13646253Y-11245436D02*
X13655777Y-11254960D01*
X13655777Y-11254960D02*
X13674825Y-11264484D01*
X13674825Y-11264484D02*
X13712920Y-11264484D01*
X13712920Y-11264484D02*
X13731968Y-11254960D01*
X13731968Y-11254960D02*
X13741491Y-11245436D01*
X13741491Y-11245436D02*
X13751015Y-11226388D01*
X13751015Y-11226388D02*
X13751015Y-11178770D01*
X13751015Y-11178770D02*
X13741491Y-11159722D01*
X13741491Y-11159722D02*
X13731968Y-11150198D01*
X13731968Y-11150198D02*
X13712920Y-11140674D01*
X13712920Y-11140674D02*
X13674825Y-11140674D01*
X13674825Y-11140674D02*
X13655777Y-11150198D01*
X13655777Y-11150198D02*
X13646253Y-11159722D01*
X13646253Y-11159722D02*
X13636729Y-11178770D01*
X13989110Y-11264484D02*
X13989110Y-11064484D01*
X14074825Y-11264484D02*
X14074825Y-11159722D01*
X14074825Y-11159722D02*
X14065301Y-11140674D01*
X14065301Y-11140674D02*
X14046253Y-11131150D01*
X14046253Y-11131150D02*
X14017682Y-11131150D01*
X14017682Y-11131150D02*
X13998634Y-11140674D01*
X13998634Y-11140674D02*
X13989110Y-11150198D01*
X14198634Y-11264484D02*
X14179587Y-11254960D01*
X14179587Y-11254960D02*
X14170063Y-11245436D01*
X14170063Y-11245436D02*
X14160539Y-11226388D01*
X14160539Y-11226388D02*
X14160539Y-11169246D01*
X14160539Y-11169246D02*
X14170063Y-11150198D01*
X14170063Y-11150198D02*
X14179587Y-11140674D01*
X14179587Y-11140674D02*
X14198634Y-11131150D01*
X14198634Y-11131150D02*
X14227206Y-11131150D01*
X14227206Y-11131150D02*
X14246253Y-11140674D01*
X14246253Y-11140674D02*
X14255777Y-11150198D01*
X14255777Y-11150198D02*
X14265301Y-11169246D01*
X14265301Y-11169246D02*
X14265301Y-11226388D01*
X14265301Y-11226388D02*
X14255777Y-11245436D01*
X14255777Y-11245436D02*
X14246253Y-11254960D01*
X14246253Y-11254960D02*
X14227206Y-11264484D01*
X14227206Y-11264484D02*
X14198634Y-11264484D01*
X14379587Y-11264484D02*
X14360539Y-11254960D01*
X14360539Y-11254960D02*
X14351015Y-11235912D01*
X14351015Y-11235912D02*
X14351015Y-11064484D01*
X14531968Y-11254960D02*
X14512920Y-11264484D01*
X14512920Y-11264484D02*
X14474825Y-11264484D01*
X14474825Y-11264484D02*
X14455777Y-11254960D01*
X14455777Y-11254960D02*
X14446253Y-11235912D01*
X14446253Y-11235912D02*
X14446253Y-11159722D01*
X14446253Y-11159722D02*
X14455777Y-11140674D01*
X14455777Y-11140674D02*
X14474825Y-11131150D01*
X14474825Y-11131150D02*
X14512920Y-11131150D01*
X14512920Y-11131150D02*
X14531968Y-11140674D01*
X14531968Y-11140674D02*
X14541491Y-11159722D01*
X14541491Y-11159722D02*
X14541491Y-11178770D01*
X14541491Y-11178770D02*
X14446253Y-11197817D01*
X14617682Y-11254960D02*
X14636730Y-11264484D01*
X14636730Y-11264484D02*
X14674825Y-11264484D01*
X14674825Y-11264484D02*
X14693872Y-11254960D01*
X14693872Y-11254960D02*
X14703396Y-11235912D01*
X14703396Y-11235912D02*
X14703396Y-11226388D01*
X14703396Y-11226388D02*
X14693872Y-11207341D01*
X14693872Y-11207341D02*
X14674825Y-11197817D01*
X14674825Y-11197817D02*
X14646253Y-11197817D01*
X14646253Y-11197817D02*
X14627206Y-11188293D01*
X14627206Y-11188293D02*
X14617682Y-11169246D01*
X14617682Y-11169246D02*
X14617682Y-11159722D01*
X14617682Y-11159722D02*
X14627206Y-11140674D01*
X14627206Y-11140674D02*
X14646253Y-11131150D01*
X14646253Y-11131150D02*
X14674825Y-11131150D01*
X14674825Y-11131150D02*
X14693872Y-11140674D01*
X14770063Y-11340674D02*
X14779587Y-11331150D01*
X14779587Y-11331150D02*
X14798634Y-11302579D01*
X14798634Y-11302579D02*
X14808158Y-11283531D01*
X14808158Y-11283531D02*
X14817682Y-11254960D01*
X14817682Y-11254960D02*
X14827206Y-11207341D01*
X14827206Y-11207341D02*
X14827206Y-11169246D01*
X14827206Y-11169246D02*
X14817682Y-11121627D01*
X14817682Y-11121627D02*
X14808158Y-11093055D01*
X14808158Y-11093055D02*
X14798634Y-11074008D01*
X14798634Y-11074008D02*
X14779587Y-11045436D01*
X14779587Y-11045436D02*
X14770063Y-11035912D01*
D10*
X9980356Y-11472356D02*
X9980356Y-11401644D01*
X9909644Y-11401644D01*
X9909644Y-11472356D01*
X9980356Y-11472356D01*
D11*
X10360539Y-11528484D02*
X10246253Y-11528484D01*
X10303396Y-11528484D02*
X10303396Y-11328484D01*
X10303396Y-11328484D02*
X10284348Y-11357055D01*
X10284348Y-11357055D02*
X10265301Y-11376103D01*
X10265301Y-11376103D02*
X10246253Y-11385627D01*
X10446253Y-11509436D02*
X10455777Y-11518960D01*
X10455777Y-11518960D02*
X10446253Y-11528484D01*
X10446253Y-11528484D02*
X10436729Y-11518960D01*
X10436729Y-11518960D02*
X10446253Y-11509436D01*
X10446253Y-11509436D02*
X10446253Y-11528484D01*
X10579586Y-11328484D02*
X10598634Y-11328484D01*
X10598634Y-11328484D02*
X10617682Y-11338008D01*
X10617682Y-11338008D02*
X10627205Y-11347531D01*
X10627205Y-11347531D02*
X10636729Y-11366579D01*
X10636729Y-11366579D02*
X10646253Y-11404674D01*
X10646253Y-11404674D02*
X10646253Y-11452293D01*
X10646253Y-11452293D02*
X10636729Y-11490388D01*
X10636729Y-11490388D02*
X10627205Y-11509436D01*
X10627205Y-11509436D02*
X10617682Y-11518960D01*
X10617682Y-11518960D02*
X10598634Y-11528484D01*
X10598634Y-11528484D02*
X10579586Y-11528484D01*
X10579586Y-11528484D02*
X10560539Y-11518960D01*
X10560539Y-11518960D02*
X10551015Y-11509436D01*
X10551015Y-11509436D02*
X10541491Y-11490388D01*
X10541491Y-11490388D02*
X10531967Y-11452293D01*
X10531967Y-11452293D02*
X10531967Y-11404674D01*
X10531967Y-11404674D02*
X10541491Y-11366579D01*
X10541491Y-11366579D02*
X10551015Y-11347531D01*
X10551015Y-11347531D02*
X10560539Y-11338008D01*
X10560539Y-11338008D02*
X10579586Y-11328484D01*
X10770063Y-11328484D02*
X10789110Y-11328484D01*
X10789110Y-11328484D02*
X10808158Y-11338008D01*
X10808158Y-11338008D02*
X10817682Y-11347531D01*
X10817682Y-11347531D02*
X10827205Y-11366579D01*
X10827205Y-11366579D02*
X10836729Y-11404674D01*
X10836729Y-11404674D02*
X10836729Y-11452293D01*
X10836729Y-11452293D02*
X10827205Y-11490388D01*
X10827205Y-11490388D02*
X10817682Y-11509436D01*
X10817682Y-11509436D02*
X10808158Y-11518960D01*
X10808158Y-11518960D02*
X10789110Y-11528484D01*
X10789110Y-11528484D02*
X10770063Y-11528484D01*
X10770063Y-11528484D02*
X10751015Y-11518960D01*
X10751015Y-11518960D02*
X10741491Y-11509436D01*
X10741491Y-11509436D02*
X10731967Y-11490388D01*
X10731967Y-11490388D02*
X10722444Y-11452293D01*
X10722444Y-11452293D02*
X10722444Y-11404674D01*
X10722444Y-11404674D02*
X10731967Y-11366579D01*
X10731967Y-11366579D02*
X10741491Y-11347531D01*
X10741491Y-11347531D02*
X10751015Y-11338008D01*
X10751015Y-11338008D02*
X10770063Y-11328484D01*
X10960539Y-11328484D02*
X10979586Y-11328484D01*
X10979586Y-11328484D02*
X10998634Y-11338008D01*
X10998634Y-11338008D02*
X11008158Y-11347531D01*
X11008158Y-11347531D02*
X11017682Y-11366579D01*
X11017682Y-11366579D02*
X11027205Y-11404674D01*
X11027205Y-11404674D02*
X11027205Y-11452293D01*
X11027205Y-11452293D02*
X11017682Y-11490388D01*
X11017682Y-11490388D02*
X11008158Y-11509436D01*
X11008158Y-11509436D02*
X10998634Y-11518960D01*
X10998634Y-11518960D02*
X10979586Y-11528484D01*
X10979586Y-11528484D02*
X10960539Y-11528484D01*
X10960539Y-11528484D02*
X10941491Y-11518960D01*
X10941491Y-11518960D02*
X10931967Y-11509436D01*
X10931967Y-11509436D02*
X10922444Y-11490388D01*
X10922444Y-11490388D02*
X10912920Y-11452293D01*
X10912920Y-11452293D02*
X10912920Y-11404674D01*
X10912920Y-11404674D02*
X10922444Y-11366579D01*
X10922444Y-11366579D02*
X10931967Y-11347531D01*
X10931967Y-11347531D02*
X10941491Y-11338008D01*
X10941491Y-11338008D02*
X10960539Y-11328484D01*
X11112920Y-11528484D02*
X11112920Y-11395150D01*
X11112920Y-11414198D02*
X11122444Y-11404674D01*
X11122444Y-11404674D02*
X11141491Y-11395150D01*
X11141491Y-11395150D02*
X11170063Y-11395150D01*
X11170063Y-11395150D02*
X11189110Y-11404674D01*
X11189110Y-11404674D02*
X11198634Y-11423722D01*
X11198634Y-11423722D02*
X11198634Y-11528484D01*
X11198634Y-11423722D02*
X11208158Y-11404674D01*
X11208158Y-11404674D02*
X11227205Y-11395150D01*
X11227205Y-11395150D02*
X11255777Y-11395150D01*
X11255777Y-11395150D02*
X11274824Y-11404674D01*
X11274824Y-11404674D02*
X11284348Y-11423722D01*
X11284348Y-11423722D02*
X11284348Y-11528484D01*
X11379586Y-11528484D02*
X11379586Y-11395150D01*
X11379586Y-11414198D02*
X11389110Y-11404674D01*
X11389110Y-11404674D02*
X11408158Y-11395150D01*
X11408158Y-11395150D02*
X11436729Y-11395150D01*
X11436729Y-11395150D02*
X11455777Y-11404674D01*
X11455777Y-11404674D02*
X11465301Y-11423722D01*
X11465301Y-11423722D02*
X11465301Y-11528484D01*
X11465301Y-11423722D02*
X11474824Y-11404674D01*
X11474824Y-11404674D02*
X11493872Y-11395150D01*
X11493872Y-11395150D02*
X11522443Y-11395150D01*
X11522443Y-11395150D02*
X11541491Y-11404674D01*
X11541491Y-11404674D02*
X11551015Y-11423722D01*
X11551015Y-11423722D02*
X11551015Y-11528484D01*
X11941491Y-11318960D02*
X11770063Y-11576103D01*
X12198634Y-11328484D02*
X12217682Y-11328484D01*
X12217682Y-11328484D02*
X12236729Y-11338008D01*
X12236729Y-11338008D02*
X12246253Y-11347531D01*
X12246253Y-11347531D02*
X12255777Y-11366579D01*
X12255777Y-11366579D02*
X12265301Y-11404674D01*
X12265301Y-11404674D02*
X12265301Y-11452293D01*
X12265301Y-11452293D02*
X12255777Y-11490388D01*
X12255777Y-11490388D02*
X12246253Y-11509436D01*
X12246253Y-11509436D02*
X12236729Y-11518960D01*
X12236729Y-11518960D02*
X12217682Y-11528484D01*
X12217682Y-11528484D02*
X12198634Y-11528484D01*
X12198634Y-11528484D02*
X12179586Y-11518960D01*
X12179586Y-11518960D02*
X12170063Y-11509436D01*
X12170063Y-11509436D02*
X12160539Y-11490388D01*
X12160539Y-11490388D02*
X12151015Y-11452293D01*
X12151015Y-11452293D02*
X12151015Y-11404674D01*
X12151015Y-11404674D02*
X12160539Y-11366579D01*
X12160539Y-11366579D02*
X12170063Y-11347531D01*
X12170063Y-11347531D02*
X12179586Y-11338008D01*
X12179586Y-11338008D02*
X12198634Y-11328484D01*
X12351015Y-11509436D02*
X12360539Y-11518960D01*
X12360539Y-11518960D02*
X12351015Y-11528484D01*
X12351015Y-11528484D02*
X12341491Y-11518960D01*
X12341491Y-11518960D02*
X12351015Y-11509436D01*
X12351015Y-11509436D02*
X12351015Y-11528484D01*
X12484348Y-11328484D02*
X12503396Y-11328484D01*
X12503396Y-11328484D02*
X12522444Y-11338008D01*
X12522444Y-11338008D02*
X12531967Y-11347531D01*
X12531967Y-11347531D02*
X12541491Y-11366579D01*
X12541491Y-11366579D02*
X12551015Y-11404674D01*
X12551015Y-11404674D02*
X12551015Y-11452293D01*
X12551015Y-11452293D02*
X12541491Y-11490388D01*
X12541491Y-11490388D02*
X12531967Y-11509436D01*
X12531967Y-11509436D02*
X12522444Y-11518960D01*
X12522444Y-11518960D02*
X12503396Y-11528484D01*
X12503396Y-11528484D02*
X12484348Y-11528484D01*
X12484348Y-11528484D02*
X12465301Y-11518960D01*
X12465301Y-11518960D02*
X12455777Y-11509436D01*
X12455777Y-11509436D02*
X12446253Y-11490388D01*
X12446253Y-11490388D02*
X12436729Y-11452293D01*
X12436729Y-11452293D02*
X12436729Y-11404674D01*
X12436729Y-11404674D02*
X12446253Y-11366579D01*
X12446253Y-11366579D02*
X12455777Y-11347531D01*
X12455777Y-11347531D02*
X12465301Y-11338008D01*
X12465301Y-11338008D02*
X12484348Y-11328484D01*
X12617682Y-11328484D02*
X12741491Y-11328484D01*
X12741491Y-11328484D02*
X12674825Y-11404674D01*
X12674825Y-11404674D02*
X12703396Y-11404674D01*
X12703396Y-11404674D02*
X12722444Y-11414198D01*
X12722444Y-11414198D02*
X12731967Y-11423722D01*
X12731967Y-11423722D02*
X12741491Y-11442769D01*
X12741491Y-11442769D02*
X12741491Y-11490388D01*
X12741491Y-11490388D02*
X12731967Y-11509436D01*
X12731967Y-11509436D02*
X12722444Y-11518960D01*
X12722444Y-11518960D02*
X12703396Y-11528484D01*
X12703396Y-11528484D02*
X12646253Y-11528484D01*
X12646253Y-11528484D02*
X12627206Y-11518960D01*
X12627206Y-11518960D02*
X12617682Y-11509436D01*
X12836729Y-11528484D02*
X12874825Y-11528484D01*
X12874825Y-11528484D02*
X12893872Y-11518960D01*
X12893872Y-11518960D02*
X12903396Y-11509436D01*
X12903396Y-11509436D02*
X12922444Y-11480865D01*
X12922444Y-11480865D02*
X12931967Y-11442769D01*
X12931967Y-11442769D02*
X12931967Y-11366579D01*
X12931967Y-11366579D02*
X12922444Y-11347531D01*
X12922444Y-11347531D02*
X12912920Y-11338008D01*
X12912920Y-11338008D02*
X12893872Y-11328484D01*
X12893872Y-11328484D02*
X12855777Y-11328484D01*
X12855777Y-11328484D02*
X12836729Y-11338008D01*
X12836729Y-11338008D02*
X12827206Y-11347531D01*
X12827206Y-11347531D02*
X12817682Y-11366579D01*
X12817682Y-11366579D02*
X12817682Y-11414198D01*
X12817682Y-11414198D02*
X12827206Y-11433246D01*
X12827206Y-11433246D02*
X12836729Y-11442769D01*
X12836729Y-11442769D02*
X12855777Y-11452293D01*
X12855777Y-11452293D02*
X12893872Y-11452293D01*
X12893872Y-11452293D02*
X12912920Y-11442769D01*
X12912920Y-11442769D02*
X12922444Y-11433246D01*
X12922444Y-11433246D02*
X12931967Y-11414198D01*
X13103396Y-11395150D02*
X13103396Y-11528484D01*
X13055777Y-11318960D02*
X13008158Y-11461817D01*
X13008158Y-11461817D02*
X13131967Y-11461817D01*
X13198634Y-11328484D02*
X13198634Y-11366579D01*
X13274825Y-11328484D02*
X13274825Y-11366579D01*
X13570063Y-11604674D02*
X13560539Y-11595150D01*
X13560539Y-11595150D02*
X13541491Y-11566579D01*
X13541491Y-11566579D02*
X13531968Y-11547531D01*
X13531968Y-11547531D02*
X13522444Y-11518960D01*
X13522444Y-11518960D02*
X13512920Y-11471341D01*
X13512920Y-11471341D02*
X13512920Y-11433246D01*
X13512920Y-11433246D02*
X13522444Y-11385627D01*
X13522444Y-11385627D02*
X13531968Y-11357055D01*
X13531968Y-11357055D02*
X13541491Y-11338008D01*
X13541491Y-11338008D02*
X13560539Y-11309436D01*
X13560539Y-11309436D02*
X13570063Y-11299912D01*
X13636729Y-11347531D02*
X13646253Y-11338008D01*
X13646253Y-11338008D02*
X13665301Y-11328484D01*
X13665301Y-11328484D02*
X13712920Y-11328484D01*
X13712920Y-11328484D02*
X13731968Y-11338008D01*
X13731968Y-11338008D02*
X13741491Y-11347531D01*
X13741491Y-11347531D02*
X13751015Y-11366579D01*
X13751015Y-11366579D02*
X13751015Y-11385627D01*
X13751015Y-11385627D02*
X13741491Y-11414198D01*
X13741491Y-11414198D02*
X13627206Y-11528484D01*
X13627206Y-11528484D02*
X13751015Y-11528484D01*
X13922444Y-11395150D02*
X13922444Y-11528484D01*
X13874825Y-11318960D02*
X13827206Y-11461817D01*
X13827206Y-11461817D02*
X13951015Y-11461817D01*
X14179587Y-11528484D02*
X14179587Y-11328484D01*
X14265301Y-11528484D02*
X14265301Y-11423722D01*
X14265301Y-11423722D02*
X14255777Y-11404674D01*
X14255777Y-11404674D02*
X14236730Y-11395150D01*
X14236730Y-11395150D02*
X14208158Y-11395150D01*
X14208158Y-11395150D02*
X14189110Y-11404674D01*
X14189110Y-11404674D02*
X14179587Y-11414198D01*
X14389110Y-11528484D02*
X14370063Y-11518960D01*
X14370063Y-11518960D02*
X14360539Y-11509436D01*
X14360539Y-11509436D02*
X14351015Y-11490388D01*
X14351015Y-11490388D02*
X14351015Y-11433246D01*
X14351015Y-11433246D02*
X14360539Y-11414198D01*
X14360539Y-11414198D02*
X14370063Y-11404674D01*
X14370063Y-11404674D02*
X14389110Y-11395150D01*
X14389110Y-11395150D02*
X14417682Y-11395150D01*
X14417682Y-11395150D02*
X14436730Y-11404674D01*
X14436730Y-11404674D02*
X14446253Y-11414198D01*
X14446253Y-11414198D02*
X14455777Y-11433246D01*
X14455777Y-11433246D02*
X14455777Y-11490388D01*
X14455777Y-11490388D02*
X14446253Y-11509436D01*
X14446253Y-11509436D02*
X14436730Y-11518960D01*
X14436730Y-11518960D02*
X14417682Y-11528484D01*
X14417682Y-11528484D02*
X14389110Y-11528484D01*
X14570063Y-11528484D02*
X14551015Y-11518960D01*
X14551015Y-11518960D02*
X14541491Y-11499912D01*
X14541491Y-11499912D02*
X14541491Y-11328484D01*
X14722444Y-11518960D02*
X14703396Y-11528484D01*
X14703396Y-11528484D02*
X14665301Y-11528484D01*
X14665301Y-11528484D02*
X14646253Y-11518960D01*
X14646253Y-11518960D02*
X14636730Y-11499912D01*
X14636730Y-11499912D02*
X14636730Y-11423722D01*
X14636730Y-11423722D02*
X14646253Y-11404674D01*
X14646253Y-11404674D02*
X14665301Y-11395150D01*
X14665301Y-11395150D02*
X14703396Y-11395150D01*
X14703396Y-11395150D02*
X14722444Y-11404674D01*
X14722444Y-11404674D02*
X14731968Y-11423722D01*
X14731968Y-11423722D02*
X14731968Y-11442769D01*
X14731968Y-11442769D02*
X14636730Y-11461817D01*
X14808158Y-11518960D02*
X14827206Y-11528484D01*
X14827206Y-11528484D02*
X14865301Y-11528484D01*
X14865301Y-11528484D02*
X14884349Y-11518960D01*
X14884349Y-11518960D02*
X14893872Y-11499912D01*
X14893872Y-11499912D02*
X14893872Y-11490388D01*
X14893872Y-11490388D02*
X14884349Y-11471341D01*
X14884349Y-11471341D02*
X14865301Y-11461817D01*
X14865301Y-11461817D02*
X14836730Y-11461817D01*
X14836730Y-11461817D02*
X14817682Y-11452293D01*
X14817682Y-11452293D02*
X14808158Y-11433246D01*
X14808158Y-11433246D02*
X14808158Y-11423722D01*
X14808158Y-11423722D02*
X14817682Y-11404674D01*
X14817682Y-11404674D02*
X14836730Y-11395150D01*
X14836730Y-11395150D02*
X14865301Y-11395150D01*
X14865301Y-11395150D02*
X14884349Y-11404674D01*
X14960539Y-11604674D02*
X14970063Y-11595150D01*
X14970063Y-11595150D02*
X14989111Y-11566579D01*
X14989111Y-11566579D02*
X14998634Y-11547531D01*
X14998634Y-11547531D02*
X15008158Y-11518960D01*
X15008158Y-11518960D02*
X15017682Y-11471341D01*
X15017682Y-11471341D02*
X15017682Y-11433246D01*
X15017682Y-11433246D02*
X15008158Y-11385627D01*
X15008158Y-11385627D02*
X14998634Y-11357055D01*
X14998634Y-11357055D02*
X14989111Y-11338008D01*
X14989111Y-11338008D02*
X14970063Y-11309436D01*
X14970063Y-11309436D02*
X14960539Y-11299912D01*
M02*
