G04 #@! TF.GenerationSoftware,KiCad,Pcbnew,7.0.9*
G04 #@! TF.CreationDate,2024-09-19T22:53:54+02:00*
G04 #@! TF.ProjectId,hpdl_1414_pmod,6870646c-5f31-4343-9134-5f706d6f642e,rev?*
G04 #@! TF.SameCoordinates,Original*
G04 #@! TF.FileFunction,Soldermask,Top*
G04 #@! TF.FilePolarity,Negative*
%FSLAX46Y46*%
G04 Gerber Fmt 4.6, Leading zero omitted, Abs format (unit mm)*
G04 Created by KiCad (PCBNEW 7.0.9) date 2024-09-19 22:53:54*
%MOMM*%
%LPD*%
G01*
G04 APERTURE LIST*
G04 Aperture macros list*
%AMRoundRect*
0 Rectangle with rounded corners*
0 $1 Rounding radius*
0 $2 $3 $4 $5 $6 $7 $8 $9 X,Y pos of 4 corners*
0 Add a 4 corners polygon primitive as box body*
4,1,4,$2,$3,$4,$5,$6,$7,$8,$9,$2,$3,0*
0 Add four circle primitives for the rounded corners*
1,1,$1+$1,$2,$3*
1,1,$1+$1,$4,$5*
1,1,$1+$1,$6,$7*
1,1,$1+$1,$8,$9*
0 Add four rect primitives between the rounded corners*
20,1,$1+$1,$2,$3,$4,$5,0*
20,1,$1+$1,$4,$5,$6,$7,0*
20,1,$1+$1,$6,$7,$8,$9,0*
20,1,$1+$1,$8,$9,$2,$3,0*%
G04 Aperture macros list end*
%ADD10C,1.600000*%
%ADD11C,6.200000*%
%ADD12C,1.524000*%
%ADD13RoundRect,0.381000X-0.381000X-0.381000X0.381000X-0.381000X0.381000X0.381000X-0.381000X0.381000X0*%
%ADD14R,1.700000X1.700000*%
%ADD15O,1.700000X1.700000*%
%ADD16C,1.700000*%
%ADD17RoundRect,0.250000X1.100000X-0.412500X1.100000X0.412500X-1.100000X0.412500X-1.100000X-0.412500X0*%
G04 APERTURE END LIST*
D10*
X146500000Y-85500000D03*
X146500000Y-90500000D03*
D11*
X103500000Y-96500000D03*
D12*
X131150000Y-79620000D03*
D13*
X133690000Y-79620000D03*
X136230000Y-79620000D03*
X138770000Y-79620000D03*
X141310000Y-79620000D03*
X143850000Y-79620000D03*
X143850000Y-64380000D03*
X141310000Y-64380000D03*
X138770000Y-64380000D03*
X136230000Y-64380000D03*
X133690000Y-64380000D03*
X131150000Y-64380000D03*
D12*
X149150000Y-79620000D03*
D13*
X151690000Y-79620000D03*
X154230000Y-79620000D03*
X156770000Y-79620000D03*
X159310000Y-79620000D03*
X161850000Y-79620000D03*
X161850000Y-64380000D03*
X159310000Y-64380000D03*
X156770000Y-64380000D03*
X154230000Y-64380000D03*
X151690000Y-64380000D03*
X149150000Y-64380000D03*
D12*
X113150000Y-79620000D03*
D13*
X115690000Y-79620000D03*
X118230000Y-79620000D03*
X120770000Y-79620000D03*
X123310000Y-79620000D03*
X125850000Y-79620000D03*
X125850000Y-64380000D03*
X123310000Y-64380000D03*
X120770000Y-64380000D03*
X118230000Y-64380000D03*
X115690000Y-64380000D03*
X113150000Y-64380000D03*
D12*
X167150000Y-79620000D03*
D13*
X169690000Y-79620000D03*
X172230000Y-79620000D03*
X174770000Y-79620000D03*
X177310000Y-79620000D03*
X179850000Y-79620000D03*
X179850000Y-64380000D03*
X177310000Y-64380000D03*
X174770000Y-64380000D03*
X172230000Y-64380000D03*
X169690000Y-64380000D03*
X167150000Y-64380000D03*
D11*
X103500000Y-47540000D03*
X180500000Y-47540000D03*
D14*
X106800000Y-77080000D03*
D15*
X106800000Y-79620000D03*
X106800000Y-82160000D03*
X106800000Y-84700000D03*
X106800000Y-87240000D03*
D16*
X106800000Y-89780000D03*
D15*
X104260000Y-77080000D03*
X104260000Y-79620000D03*
X104260000Y-82160000D03*
X104260000Y-84700000D03*
X104260000Y-87240000D03*
X104260000Y-89780000D03*
D10*
X164500000Y-85500000D03*
X164500000Y-90500000D03*
D11*
X180500000Y-96500000D03*
D14*
X106800000Y-54220000D03*
D15*
X106800000Y-56760000D03*
X106800000Y-59300000D03*
X106800000Y-61840000D03*
X106800000Y-64380000D03*
D16*
X106800000Y-66920000D03*
D15*
X104260000Y-54220000D03*
X104260000Y-56760000D03*
X104260000Y-59300000D03*
X104260000Y-61840000D03*
X104260000Y-64380000D03*
X104260000Y-66920000D03*
D17*
X107400000Y-73662500D03*
X107400000Y-70537500D03*
D10*
X128500000Y-85500000D03*
X128500000Y-90500000D03*
M02*
