G04 #@! TF.GenerationSoftware,KiCad,Pcbnew,7.0.9*
G04 #@! TF.CreationDate,2024-09-19T22:53:54+02:00*
G04 #@! TF.ProjectId,hpdl_1414_pmod,6870646c-5f31-4343-9134-5f706d6f642e,rev?*
G04 #@! TF.SameCoordinates,Original*
G04 #@! TF.FileFunction,Copper,L1,Top*
G04 #@! TF.FilePolarity,Positive*
%FSLAX46Y46*%
G04 Gerber Fmt 4.6, Leading zero omitted, Abs format (unit mm)*
G04 Created by KiCad (PCBNEW 7.0.9) date 2024-09-19 22:53:54*
%MOMM*%
%LPD*%
G01*
G04 APERTURE LIST*
G04 Aperture macros list*
%AMRoundRect*
0 Rectangle with rounded corners*
0 $1 Rounding radius*
0 $2 $3 $4 $5 $6 $7 $8 $9 X,Y pos of 4 corners*
0 Add a 4 corners polygon primitive as box body*
4,1,4,$2,$3,$4,$5,$6,$7,$8,$9,$2,$3,0*
0 Add four circle primitives for the rounded corners*
1,1,$1+$1,$2,$3*
1,1,$1+$1,$4,$5*
1,1,$1+$1,$6,$7*
1,1,$1+$1,$8,$9*
0 Add four rect primitives between the rounded corners*
20,1,$1+$1,$2,$3,$4,$5,0*
20,1,$1+$1,$4,$5,$6,$7,0*
20,1,$1+$1,$6,$7,$8,$9,0*
20,1,$1+$1,$8,$9,$2,$3,0*%
G04 Aperture macros list end*
G04 #@! TA.AperFunction,ComponentPad*
%ADD10C,1.600000*%
G04 #@! TD*
G04 #@! TA.AperFunction,ComponentPad*
%ADD11C,1.524000*%
G04 #@! TD*
G04 #@! TA.AperFunction,ComponentPad*
%ADD12RoundRect,0.381000X-0.381000X-0.381000X0.381000X-0.381000X0.381000X0.381000X-0.381000X0.381000X0*%
G04 #@! TD*
G04 #@! TA.AperFunction,ComponentPad*
%ADD13R,1.700000X1.700000*%
G04 #@! TD*
G04 #@! TA.AperFunction,ComponentPad*
%ADD14O,1.700000X1.700000*%
G04 #@! TD*
G04 #@! TA.AperFunction,ComponentPad*
%ADD15C,1.700000*%
G04 #@! TD*
G04 #@! TA.AperFunction,SMDPad,CuDef*
%ADD16RoundRect,0.250000X1.100000X-0.412500X1.100000X0.412500X-1.100000X0.412500X-1.100000X-0.412500X0*%
G04 #@! TD*
G04 #@! TA.AperFunction,ViaPad*
%ADD17C,0.900000*%
G04 #@! TD*
G04 #@! TA.AperFunction,Conductor*
%ADD18C,0.500000*%
G04 #@! TD*
G04 #@! TA.AperFunction,Conductor*
%ADD19C,0.250000*%
G04 #@! TD*
G04 APERTURE END LIST*
D10*
X146500000Y-85500000D03*
X146500000Y-90500000D03*
D11*
X131150000Y-79620000D03*
D12*
X133690000Y-79620000D03*
X136230000Y-79620000D03*
X138770000Y-79620000D03*
X141310000Y-79620000D03*
X143850000Y-79620000D03*
X143850000Y-64380000D03*
X141310000Y-64380000D03*
X138770000Y-64380000D03*
X136230000Y-64380000D03*
X133690000Y-64380000D03*
X131150000Y-64380000D03*
D11*
X149150000Y-79620000D03*
D12*
X151690000Y-79620000D03*
X154230000Y-79620000D03*
X156770000Y-79620000D03*
X159310000Y-79620000D03*
X161850000Y-79620000D03*
X161850000Y-64380000D03*
X159310000Y-64380000D03*
X156770000Y-64380000D03*
X154230000Y-64380000D03*
X151690000Y-64380000D03*
X149150000Y-64380000D03*
D11*
X113150000Y-79620000D03*
D12*
X115690000Y-79620000D03*
X118230000Y-79620000D03*
X120770000Y-79620000D03*
X123310000Y-79620000D03*
X125850000Y-79620000D03*
X125850000Y-64380000D03*
X123310000Y-64380000D03*
X120770000Y-64380000D03*
X118230000Y-64380000D03*
X115690000Y-64380000D03*
X113150000Y-64380000D03*
D11*
X167150000Y-79620000D03*
D12*
X169690000Y-79620000D03*
X172230000Y-79620000D03*
X174770000Y-79620000D03*
X177310000Y-79620000D03*
X179850000Y-79620000D03*
X179850000Y-64380000D03*
X177310000Y-64380000D03*
X174770000Y-64380000D03*
X172230000Y-64380000D03*
X169690000Y-64380000D03*
X167150000Y-64380000D03*
D13*
X106800000Y-77080000D03*
D14*
X106800000Y-79620000D03*
X106800000Y-82160000D03*
X106800000Y-84700000D03*
X106800000Y-87240000D03*
D15*
X106800000Y-89780000D03*
D14*
X104260000Y-77080000D03*
X104260000Y-79620000D03*
X104260000Y-82160000D03*
X104260000Y-84700000D03*
X104260000Y-87240000D03*
X104260000Y-89780000D03*
D10*
X164500000Y-85500000D03*
X164500000Y-90500000D03*
D13*
X106800000Y-54220000D03*
D14*
X106800000Y-56760000D03*
X106800000Y-59300000D03*
X106800000Y-61840000D03*
X106800000Y-64380000D03*
D15*
X106800000Y-66920000D03*
D14*
X104260000Y-54220000D03*
X104260000Y-56760000D03*
X104260000Y-59300000D03*
X104260000Y-61840000D03*
X104260000Y-64380000D03*
X104260000Y-66920000D03*
D16*
X107400000Y-73662500D03*
X107400000Y-70537500D03*
D10*
X128500000Y-85500000D03*
X128500000Y-90500000D03*
D17*
X156800000Y-77125500D03*
X120830000Y-77037750D03*
X138830000Y-77037750D03*
X174800000Y-77125500D03*
X177300000Y-77900000D03*
X123300000Y-78000000D03*
X141400000Y-77900000D03*
X159300000Y-77900000D03*
X149150000Y-69550000D03*
X131200000Y-69500000D03*
X113200000Y-69500000D03*
X167150000Y-69474500D03*
X167200000Y-75300000D03*
X131150000Y-75215000D03*
X149200000Y-75300000D03*
X113150000Y-75215000D03*
X151700000Y-76200000D03*
X169700000Y-76300000D03*
X133650000Y-76215000D03*
X115650000Y-76115000D03*
X117600000Y-83600000D03*
X123300000Y-66300000D03*
X177300000Y-66300000D03*
X141300000Y-66300000D03*
X159300000Y-66300000D03*
X156800000Y-67100000D03*
X138800000Y-67074500D03*
X174800000Y-67100000D03*
X120800000Y-67100000D03*
X154200000Y-67900000D03*
X118400000Y-67500000D03*
X136400000Y-67900000D03*
X172200000Y-67874500D03*
X169690000Y-68700000D03*
X133750000Y-68674500D03*
X151690000Y-68710000D03*
X115750000Y-68674500D03*
D18*
X110330000Y-70450000D02*
X153442000Y-70450000D01*
X153442000Y-70450000D02*
X161850000Y-78858000D01*
X107000000Y-67120000D02*
X106800000Y-66920000D01*
X104260000Y-66920000D02*
X106800000Y-66920000D01*
X107000000Y-70137500D02*
X107000000Y-67120000D01*
X107400000Y-70537500D02*
X107000000Y-70137500D01*
X106800000Y-66920000D02*
X110330000Y-70450000D01*
X161850000Y-78858000D02*
X161850000Y-79620000D01*
D19*
X138800000Y-79532250D02*
X138800000Y-77067750D01*
X156770000Y-77155500D02*
X156770000Y-79620000D01*
X120800000Y-77067750D02*
X120800000Y-79532250D01*
X120830000Y-77037750D02*
X118232250Y-74440000D01*
X156800000Y-77125500D02*
X156770000Y-77155500D01*
X111980000Y-74440000D02*
X106800000Y-79620000D01*
X118232250Y-74440000D02*
X111980000Y-74440000D01*
X174770000Y-77155500D02*
X174800000Y-77125500D01*
X174770000Y-79620000D02*
X174770000Y-77155500D01*
X123300000Y-78000000D02*
X123310000Y-78010000D01*
X141310000Y-79620000D02*
X141310000Y-77990000D01*
X109890000Y-73990000D02*
X106800000Y-77080000D01*
X123310000Y-78010000D02*
X123310000Y-79620000D01*
X159300000Y-77900000D02*
X159300000Y-79610000D01*
X177310000Y-77910000D02*
X177300000Y-77900000D01*
X141310000Y-77990000D02*
X141400000Y-77900000D01*
X177310000Y-79620000D02*
X177310000Y-77910000D01*
X159300000Y-79610000D02*
X159310000Y-79620000D01*
X123300000Y-78000000D02*
X119290000Y-73990000D01*
X119290000Y-73990000D02*
X109890000Y-73990000D01*
X115690000Y-82160000D02*
X106800000Y-82160000D01*
X118230000Y-79620000D02*
X115690000Y-82160000D01*
X117700000Y-81500000D02*
X114500000Y-84700000D01*
X134350000Y-81500000D02*
X117700000Y-81500000D01*
X136230000Y-79620000D02*
X134350000Y-81500000D01*
X114500000Y-84700000D02*
X106800000Y-84700000D01*
X113961396Y-85875000D02*
X106313299Y-85875000D01*
X106313299Y-85875000D02*
X105435000Y-84996701D01*
X103085000Y-78255000D02*
X104260000Y-77080000D01*
X105435000Y-84023299D02*
X104811701Y-83400000D01*
X103085000Y-82646701D02*
X103085000Y-78255000D01*
X104811701Y-83400000D02*
X103838299Y-83400000D01*
X105435000Y-84996701D02*
X105435000Y-84023299D01*
X103838299Y-83400000D02*
X103085000Y-82646701D01*
X154230000Y-79620000D02*
X151400000Y-82450000D01*
X117386396Y-82450000D02*
X113961396Y-85875000D01*
X151400000Y-82450000D02*
X117386396Y-82450000D01*
X131150000Y-64380000D02*
X131150000Y-69450000D01*
X167150000Y-69474500D02*
X167150000Y-64380000D01*
X131150000Y-69450000D02*
X131200000Y-69500000D01*
X113150000Y-64380000D02*
X113150000Y-69450000D01*
X113150000Y-64380000D02*
X111785000Y-63015000D01*
X106313299Y-63015000D02*
X105435000Y-62136701D01*
X105435000Y-60475000D02*
X104260000Y-59300000D01*
X105435000Y-62136701D02*
X105435000Y-60475000D01*
X149150000Y-69550000D02*
X149150000Y-64380000D01*
X111785000Y-63015000D02*
X106313299Y-63015000D01*
X149200000Y-75300000D02*
X149150000Y-75350000D01*
X113100000Y-75265000D02*
X113100000Y-79535000D01*
X167150000Y-79620000D02*
X167150000Y-75350000D01*
X167150000Y-75350000D02*
X167200000Y-75300000D01*
X149150000Y-75350000D02*
X149150000Y-79620000D01*
X131100000Y-79535000D02*
X131100000Y-75265000D01*
X169690000Y-76310000D02*
X169700000Y-76300000D01*
X151700000Y-76200000D02*
X151690000Y-76210000D01*
X115640000Y-76125000D02*
X115640000Y-79535000D01*
X133640000Y-79535000D02*
X133640000Y-76225000D01*
X169690000Y-79620000D02*
X169690000Y-76310000D01*
X151690000Y-76210000D02*
X151690000Y-79620000D01*
X171143000Y-80757000D02*
X171143000Y-80707000D01*
X171143000Y-80707000D02*
X172230000Y-79620000D01*
X118300000Y-82900000D02*
X169000000Y-82900000D01*
X117600000Y-83600000D02*
X118300000Y-82900000D01*
X169000000Y-82900000D02*
X171143000Y-80757000D01*
X159300000Y-66300000D02*
X159300000Y-64390000D01*
X177310000Y-66290000D02*
X177300000Y-66300000D01*
X123310000Y-64380000D02*
X123310000Y-66290000D01*
X141310000Y-66290000D02*
X141300000Y-66300000D01*
X159300000Y-64390000D02*
X159310000Y-64380000D01*
X113150000Y-54220000D02*
X123310000Y-64380000D01*
X177310000Y-64380000D02*
X177310000Y-66290000D01*
X141310000Y-64380000D02*
X141310000Y-66290000D01*
X123310000Y-66290000D02*
X123300000Y-66300000D01*
X106800000Y-54220000D02*
X113150000Y-54220000D01*
X113150000Y-56760000D02*
X106800000Y-56760000D01*
X174770000Y-67070000D02*
X174800000Y-67100000D01*
X138770000Y-64380000D02*
X138770000Y-67044500D01*
X174770000Y-64380000D02*
X174770000Y-67070000D01*
X120770000Y-64380000D02*
X120770000Y-67070000D01*
X156770000Y-67070000D02*
X156770000Y-64380000D01*
X120770000Y-64380000D02*
X113150000Y-56760000D01*
X156800000Y-67100000D02*
X156770000Y-67070000D01*
X138770000Y-67044500D02*
X138800000Y-67074500D01*
X120770000Y-67070000D02*
X120800000Y-67100000D01*
X118080000Y-64380000D02*
X113000000Y-59300000D01*
X154200000Y-67900000D02*
X154230000Y-67870000D01*
X118230000Y-64380000D02*
X118080000Y-64380000D01*
X136230000Y-64380000D02*
X136230000Y-67730000D01*
X154230000Y-67870000D02*
X154230000Y-64380000D01*
X136230000Y-67730000D02*
X136400000Y-67900000D01*
X118230000Y-67330000D02*
X118230000Y-64380000D01*
X113000000Y-59300000D02*
X106800000Y-59300000D01*
X118400000Y-67500000D02*
X118230000Y-67330000D01*
X172230000Y-64380000D02*
X172230000Y-67844500D01*
X172230000Y-67844500D02*
X172200000Y-67874500D01*
X133690000Y-68590000D02*
X133690000Y-64380000D01*
X115690000Y-64380000D02*
X113150000Y-61840000D01*
X133750000Y-68650000D02*
X133690000Y-68590000D01*
X133750000Y-68674500D02*
X133750000Y-68650000D01*
X151690000Y-68710000D02*
X151690000Y-64380000D01*
X113150000Y-61840000D02*
X106800000Y-61840000D01*
X115690000Y-68590000D02*
X115690000Y-64380000D01*
X169690000Y-68700000D02*
X169690000Y-64380000D01*
M02*
